<?xml version="1.0" encoding="utf-8" standalone="no"?>
<!DOCTYPE svg PUBLIC "-//W3C//DTD SVG 1.1//EN"
  "http://www.w3.org/Graphics/SVG/1.1/DTD/svg11.dtd">
<svg xmlns:xlink="http://www.w3.org/1999/xlink" width="648pt" height="576pt" viewBox="0 0 648 576" xmlns="http://www.w3.org/2000/svg" version="1.1">
 <metadata>
  <rdf:RDF xmlns:dc="http://purl.org/dc/elements/1.1/" xmlns:cc="http://creativecommons.org/ns#" xmlns:rdf="http://www.w3.org/1999/02/22-rdf-syntax-ns#">
   <cc:Work>
    <dc:type rdf:resource="http://purl.org/dc/dcmitype/StillImage"/>
    <dc:date>2025-11-08T18:54:15.881175</dc:date>
    <dc:format>image/svg+xml</dc:format>
    <dc:creator>
     <cc:Agent>
      <dc:title>Matplotlib v3.9.1, https://matplotlib.org/</dc:title>
     </cc:Agent>
    </dc:creator>
   </cc:Work>
  </rdf:RDF>
 </metadata>
 <defs>
  <style type="text/css">*{stroke-linejoin: round; stroke-linecap: butt}</style>
 </defs>
 <g id="figure_1">
  <g id="patch_1">
   <path d="M 0 576 
L 648 576 
L 648 0 
L 0 0 
L 0 576 
z
" style="fill: none"/>
  </g>
  <g id="axes_1">
   <g id="patch_2">
    <path d="M 110.16 489.78 
L 637.2 489.78 
L 637.2 10.8 
L 110.16 10.8 
L 110.16 489.78 
z
" style="fill: none"/>
   </g>
   <g id="matplotlib.axis_1">
    <g id="xtick_1">
     <g id="line2d_1">
      <defs>
       <path id="m1348e5f313" d="M 0 0 
L 0 6 
" style="stroke: #000000; stroke-width: 0.8"/>
      </defs>
      <g>
       <use xlink:href="#m1348e5f313" x="138.773404" y="489.78" style="stroke: #000000; stroke-width: 0.8"/>
      </g>
     </g>
     <g id="text_1">
      <!-- 40 -->
      <g transform="translate(120.978404 522.235) scale(0.32 -0.32)">
       <defs>
        <path id="Helvetica-34" d="M 2116 1584 
L 2116 3613 
L 681 1584 
L 2116 1584 
z
M 2125 0 
L 2125 1094 
L 163 1094 
L 163 1644 
L 2213 4488 
L 2688 4488 
L 2688 1584 
L 3347 1584 
L 3347 1094 
L 2688 1094 
L 2688 0 
L 2125 0 
z
" transform="scale(0.015625)"/>
        <path id="Helvetica-30" d="M 1731 4475 
Q 2600 4475 2988 3759 
Q 3288 3206 3288 2244 
Q 3288 1331 3016 734 
Q 2622 -122 1728 -122 
Q 922 -122 528 578 
Q 200 1163 200 2147 
Q 200 2909 397 3456 
Q 766 4475 1731 4475 
z
M 1725 391 
Q 2163 391 2422 778 
Q 2681 1166 2681 2222 
Q 2681 2984 2493 3476 
Q 2306 3969 1766 3969 
Q 1269 3969 1039 3501 
Q 809 3034 809 2125 
Q 809 1441 956 1025 
Q 1181 391 1725 391 
z
" transform="scale(0.015625)"/>
       </defs>
       <use xlink:href="#Helvetica-34"/>
       <use xlink:href="#Helvetica-30" x="55.615234"/>
      </g>
     </g>
    </g>
    <g id="xtick_2">
     <g id="line2d_2">
      <g>
       <use xlink:href="#m1348e5f313" x="330.533891" y="489.78" style="stroke: #000000; stroke-width: 0.8"/>
      </g>
     </g>
     <g id="text_2">
      <!-- 60 -->
      <g transform="translate(312.738891 522.235) scale(0.32 -0.32)">
       <defs>
        <path id="Helvetica-36" d="M 1872 4494 
Q 2622 4494 2917 4105 
Q 3213 3716 3213 3303 
L 2656 3303 
Q 2606 3569 2497 3719 
Q 2294 4000 1881 4000 
Q 1409 4000 1131 3564 
Q 853 3128 822 2316 
Q 1016 2600 1309 2741 
Q 1578 2866 1909 2866 
Q 2472 2866 2890 2506 
Q 3309 2147 3309 1434 
Q 3309 825 2912 354 
Q 2516 -116 1781 -116 
Q 1153 -116 697 361 
Q 241 838 241 1966 
Q 241 2800 444 3381 
Q 834 4494 1872 4494 
z
M 1831 384 
Q 2275 384 2495 682 
Q 2716 981 2716 1388 
Q 2716 1731 2519 2042 
Q 2322 2353 1803 2353 
Q 1441 2353 1167 2112 
Q 894 1872 894 1388 
Q 894 963 1142 673 
Q 1391 384 1831 384 
z
" transform="scale(0.015625)"/>
       </defs>
       <use xlink:href="#Helvetica-36"/>
       <use xlink:href="#Helvetica-30" x="55.615234"/>
      </g>
     </g>
    </g>
    <g id="xtick_3">
     <g id="line2d_3">
      <g>
       <use xlink:href="#m1348e5f313" x="522.294377" y="489.78" style="stroke: #000000; stroke-width: 0.8"/>
      </g>
     </g>
     <g id="text_3">
      <!-- 80 -->
      <g transform="translate(504.499377 522.235) scale(0.32 -0.32)">
       <defs>
        <path id="Helvetica-38" d="M 1741 2600 
Q 2113 2600 2322 2808 
Q 2531 3016 2531 3303 
Q 2531 3553 2331 3762 
Q 2131 3972 1722 3972 
Q 1316 3972 1134 3762 
Q 953 3553 953 3272 
Q 953 2956 1187 2778 
Q 1422 2600 1741 2600 
z
M 1775 384 
Q 2166 384 2423 595 
Q 2681 806 2681 1225 
Q 2681 1659 2415 1884 
Q 2150 2109 1734 2109 
Q 1331 2109 1076 1879 
Q 822 1650 822 1244 
Q 822 894 1055 639 
Q 1288 384 1775 384 
z
M 975 2384 
Q 741 2484 609 2619 
Q 363 2869 363 3269 
Q 363 3769 725 4128 
Q 1088 4488 1753 4488 
Q 2397 4488 2762 4148 
Q 3128 3809 3128 3356 
Q 3128 2938 2916 2678 
Q 2797 2531 2547 2391 
Q 2825 2263 2984 2097 
Q 3281 1784 3281 1284 
Q 3281 694 2884 283 
Q 2488 -128 1763 -128 
Q 1109 -128 657 226 
Q 206 581 206 1256 
Q 206 1653 400 1942 
Q 594 2231 975 2384 
z
" transform="scale(0.015625)"/>
       </defs>
       <use xlink:href="#Helvetica-38"/>
       <use xlink:href="#Helvetica-30" x="55.615234"/>
      </g>
     </g>
    </g>
    <g id="text_4">
     <!-- Accuracy (%) -->
     <g transform="translate(272.612344 557.693125) scale(0.34 -0.34)">
      <defs>
       <path id="Helvetica-41" d="M 2844 1881 
L 2147 3909 
L 1406 1881 
L 2844 1881 
z
M 1822 4591 
L 2525 4591 
L 4191 0 
L 3509 0 
L 3044 1375 
L 1228 1375 
L 731 0 
L 94 0 
L 1822 4591 
z
" transform="scale(0.015625)"/>
       <path id="Helvetica-63" d="M 1703 3444 
Q 2269 3444 2623 3169 
Q 2978 2894 3050 2222 
L 2503 2222 
Q 2453 2531 2275 2736 
Q 2097 2941 1703 2941 
Q 1166 2941 934 2416 
Q 784 2075 784 1575 
Q 784 1072 996 728 
Q 1209 384 1666 384 
Q 2016 384 2220 598 
Q 2425 813 2503 1184 
L 3050 1184 
Q 2956 519 2581 211 
Q 2206 -97 1622 -97 
Q 966 -97 575 383 
Q 184 863 184 1581 
Q 184 2463 612 2953 
Q 1041 3444 1703 3444 
z
M 1616 3428 
L 1616 3428 
z
" transform="scale(0.015625)"/>
       <path id="Helvetica-75" d="M 975 3347 
L 975 1125 
Q 975 869 1056 706 
Q 1206 406 1616 406 
Q 2203 406 2416 931 
Q 2531 1213 2531 1703 
L 2531 3347 
L 3094 3347 
L 3094 0 
L 2563 0 
L 2569 494 
Q 2459 303 2297 172 
Q 1975 -91 1516 -91 
Q 800 -91 541 388 
Q 400 644 400 1072 
L 400 3347 
L 975 3347 
z
M 1747 3428 
L 1747 3428 
z
" transform="scale(0.015625)"/>
       <path id="Helvetica-72" d="M 428 3347 
L 963 3347 
L 963 2769 
Q 1028 2938 1284 3180 
Q 1541 3422 1875 3422 
Q 1891 3422 1928 3419 
Q 1966 3416 2056 3406 
L 2056 2813 
Q 2006 2822 1964 2825 
Q 1922 2828 1872 2828 
Q 1447 2828 1219 2554 
Q 991 2281 991 1925 
L 991 0 
L 428 0 
L 428 3347 
z
" transform="scale(0.015625)"/>
       <path id="Helvetica-61" d="M 844 891 
Q 844 647 1022 506 
Q 1200 366 1444 366 
Q 1741 366 2019 503 
Q 2488 731 2488 1250 
L 2488 1703 
Q 2384 1638 2221 1594 
Q 2059 1550 1903 1531 
L 1563 1488 
Q 1256 1447 1103 1359 
Q 844 1213 844 891 
z
M 2206 2028 
Q 2400 2053 2466 2191 
Q 2503 2266 2503 2406 
Q 2503 2694 2298 2823 
Q 2094 2953 1713 2953 
Q 1272 2953 1088 2716 
Q 984 2584 953 2325 
L 428 2325 
Q 444 2944 830 3186 
Q 1216 3428 1725 3428 
Q 2316 3428 2684 3203 
Q 3050 2978 3050 2503 
L 3050 575 
Q 3050 488 3086 434 
Q 3122 381 3238 381 
Q 3275 381 3322 386 
Q 3369 391 3422 400 
L 3422 -16 
Q 3291 -53 3222 -62 
Q 3153 -72 3034 -72 
Q 2744 -72 2613 134 
Q 2544 244 2516 444 
Q 2344 219 2022 53 
Q 1700 -113 1313 -113 
Q 847 -113 551 170 
Q 256 453 256 878 
Q 256 1344 547 1600 
Q 838 1856 1309 1916 
L 2206 2028 
z
M 1741 3428 
L 1741 3428 
z
" transform="scale(0.015625)"/>
       <path id="Helvetica-79" d="M 2503 3347 
L 3125 3347 
Q 3006 3025 2597 1878 
Q 2291 1016 2084 472 
Q 1597 -809 1397 -1090 
Q 1197 -1372 709 -1372 
Q 591 -1372 527 -1362 
Q 463 -1353 369 -1328 
L 369 -816 
Q 516 -856 581 -865 
Q 647 -875 697 -875 
Q 853 -875 926 -823 
Q 1000 -772 1050 -697 
Q 1066 -672 1162 -440 
Q 1259 -209 1303 -97 
L 66 3347 
L 703 3347 
L 1600 622 
L 2503 3347 
z
M 1597 3428 
L 1597 3428 
z
" transform="scale(0.015625)"/>
       <path id="Helvetica-20" transform="scale(0.015625)"/>
       <path id="Helvetica-28" d="M 1894 4666 
Q 1403 3713 1256 3263 
Q 1034 2578 1034 1681 
Q 1034 775 1288 25 
Q 1444 -438 1903 -1306 
L 1525 -1306 
Q 1069 -594 959 -397 
Q 850 -200 722 138 
Q 547 600 478 1125 
Q 444 1397 444 1644 
Q 444 2569 734 3291 
Q 919 3750 1503 4666 
L 1894 4666 
z
" transform="scale(0.015625)"/>
       <path id="Helvetica-25" d="M 4363 2175 
Q 4813 2175 5131 1856 
Q 5450 1538 5450 1088 
Q 5450 638 5131 319 
Q 4813 0 4363 0 
Q 3909 0 3590 319 
Q 3272 638 3272 1088 
Q 3272 1538 3590 1856 
Q 3909 2175 4363 2175 
z
M 3909 4456 
L 4256 4456 
L 1753 -119 
L 1406 -119 
L 3909 4456 
z
M 1294 2606 
Q 1563 2606 1752 2795 
Q 1941 2984 1941 3250 
Q 1941 3516 1752 3705 
Q 1563 3894 1294 3894 
Q 1028 3894 839 3706 
Q 650 3519 650 3250 
Q 650 2984 839 2795 
Q 1028 2606 1294 2606 
z
M 1294 4341 
Q 1747 4341 2065 4020 
Q 2384 3700 2384 3250 
Q 2384 2800 2065 2481 
Q 1747 2163 1294 2163 
Q 844 2163 525 2481 
Q 206 2800 206 3250 
Q 206 3700 525 4020 
Q 844 4341 1294 4341 
z
M 4363 444 
Q 4628 444 4817 633 
Q 5006 822 5006 1088 
Q 5006 1353 4817 1542 
Q 4628 1731 4363 1731 
Q 4094 1731 3905 1542 
Q 3716 1353 3716 1088 
Q 3716 822 3905 633 
Q 4094 444 4363 444 
z
" transform="scale(0.015625)"/>
       <path id="Helvetica-29" d="M 222 -1306 
Q 719 -338 863 106 
Q 1081 778 1081 1681 
Q 1081 2584 828 3334 
Q 672 3797 213 4666 
L 591 4666 
Q 1072 3897 1173 3717 
Q 1275 3538 1394 3222 
Q 1544 2831 1608 2450 
Q 1672 2069 1672 1716 
Q 1672 791 1378 66 
Q 1194 -400 613 -1306 
L 222 -1306 
z
" transform="scale(0.015625)"/>
      </defs>
      <use xlink:href="#Helvetica-41"/>
      <use xlink:href="#Helvetica-63" x="66.699219"/>
      <use xlink:href="#Helvetica-63" x="116.699219"/>
      <use xlink:href="#Helvetica-75" x="166.699219"/>
      <use xlink:href="#Helvetica-72" x="222.314453"/>
      <use xlink:href="#Helvetica-61" x="255.615234"/>
      <use xlink:href="#Helvetica-63" x="311.230469"/>
      <use xlink:href="#Helvetica-79" x="361.230469"/>
      <use xlink:href="#Helvetica-20" x="411.230469"/>
      <use xlink:href="#Helvetica-28" x="439.013672"/>
      <use xlink:href="#Helvetica-25" x="472.314453"/>
      <use xlink:href="#Helvetica-29" x="561.230469"/>
     </g>
    </g>
   </g>
   <g id="matplotlib.axis_2">
    <g id="ytick_1">
     <g id="line2d_4">
      <path d="M 110.16 489.78 
L 637.2 489.78 
" clip-path="url(#pd7945c3944)" style="fill: none; stroke-dasharray: 1.85,0.8; stroke-dashoffset: 0; stroke: #d3d3d3; stroke-opacity: 0.6; stroke-width: 0.5"/>
     </g>
     <g id="line2d_5">
      <defs>
       <path id="md542a30f53" d="M 0 0 
L -6 0 
" style="stroke: #000000; stroke-width: 0.8"/>
      </defs>
      <g>
       <use xlink:href="#md542a30f53" x="110.16" y="489.78" style="stroke: #000000; stroke-width: 0.8"/>
      </g>
     </g>
     <g id="text_5">
      <!-- 0 -->
      <g transform="translate(82.865 501.2575) scale(0.32 -0.32)">
       <use xlink:href="#Helvetica-30"/>
      </g>
     </g>
    </g>
    <g id="ytick_2">
     <g id="line2d_6">
      <path d="M 110.16 393.235782 
L 637.2 393.235782 
" clip-path="url(#pd7945c3944)" style="fill: none; stroke-dasharray: 1.85,0.8; stroke-dashoffset: 0; stroke: #d3d3d3; stroke-opacity: 0.6; stroke-width: 0.5"/>
     </g>
     <g id="line2d_7">
      <g>
       <use xlink:href="#md542a30f53" x="110.16" y="393.235782" style="stroke: #000000; stroke-width: 0.8"/>
      </g>
     </g>
     <g id="text_6">
      <!-- 200 -->
      <g transform="translate(47.275 404.713282) scale(0.32 -0.32)">
       <defs>
        <path id="Helvetica-32" d="M 200 0 
Q 231 578 439 1006 
Q 647 1434 1250 1784 
L 1850 2131 
Q 2253 2366 2416 2531 
Q 2672 2791 2672 3125 
Q 2672 3516 2437 3745 
Q 2203 3975 1813 3975 
Q 1234 3975 1013 3538 
Q 894 3303 881 2888 
L 309 2888 
Q 319 3472 525 3841 
Q 891 4491 1816 4491 
Q 2584 4491 2939 4075 
Q 3294 3659 3294 3150 
Q 3294 2613 2916 2231 
Q 2697 2009 2131 1694 
L 1703 1456 
Q 1397 1288 1222 1134 
Q 909 863 828 531 
L 3272 531 
L 3272 0 
L 200 0 
z
" transform="scale(0.015625)"/>
       </defs>
       <use xlink:href="#Helvetica-32"/>
       <use xlink:href="#Helvetica-30" x="55.615234"/>
       <use xlink:href="#Helvetica-30" x="111.230469"/>
      </g>
     </g>
    </g>
    <g id="ytick_3">
     <g id="line2d_8">
      <path d="M 110.16 296.691565 
L 637.2 296.691565 
" clip-path="url(#pd7945c3944)" style="fill: none; stroke-dasharray: 1.85,0.8; stroke-dashoffset: 0; stroke: #d3d3d3; stroke-opacity: 0.6; stroke-width: 0.5"/>
     </g>
     <g id="line2d_9">
      <g>
       <use xlink:href="#md542a30f53" x="110.16" y="296.691565" style="stroke: #000000; stroke-width: 0.8"/>
      </g>
     </g>
     <g id="text_7">
      <!-- 400 -->
      <g transform="translate(47.275 308.169065) scale(0.32 -0.32)">
       <use xlink:href="#Helvetica-34"/>
       <use xlink:href="#Helvetica-30" x="55.615234"/>
       <use xlink:href="#Helvetica-30" x="111.230469"/>
      </g>
     </g>
    </g>
    <g id="ytick_4">
     <g id="line2d_10">
      <path d="M 110.16 200.147347 
L 637.2 200.147347 
" clip-path="url(#pd7945c3944)" style="fill: none; stroke-dasharray: 1.85,0.8; stroke-dashoffset: 0; stroke: #d3d3d3; stroke-opacity: 0.6; stroke-width: 0.5"/>
     </g>
     <g id="line2d_11">
      <g>
       <use xlink:href="#md542a30f53" x="110.16" y="200.147347" style="stroke: #000000; stroke-width: 0.8"/>
      </g>
     </g>
     <g id="text_8">
      <!-- 600 -->
      <g transform="translate(47.275 211.624847) scale(0.32 -0.32)">
       <use xlink:href="#Helvetica-36"/>
       <use xlink:href="#Helvetica-30" x="55.615234"/>
       <use xlink:href="#Helvetica-30" x="111.230469"/>
      </g>
     </g>
    </g>
    <g id="ytick_5">
     <g id="line2d_12">
      <path d="M 110.16 103.603129 
L 637.2 103.603129 
" clip-path="url(#pd7945c3944)" style="fill: none; stroke-dasharray: 1.85,0.8; stroke-dashoffset: 0; stroke: #d3d3d3; stroke-opacity: 0.6; stroke-width: 0.5"/>
     </g>
     <g id="line2d_13">
      <g>
       <use xlink:href="#md542a30f53" x="110.16" y="103.603129" style="stroke: #000000; stroke-width: 0.8"/>
      </g>
     </g>
     <g id="text_9">
      <!-- 800 -->
      <g transform="translate(47.275 115.080629) scale(0.32 -0.32)">
       <use xlink:href="#Helvetica-38"/>
       <use xlink:href="#Helvetica-30" x="55.615234"/>
       <use xlink:href="#Helvetica-30" x="111.230469"/>
      </g>
     </g>
    </g>
    <g id="text_10">
     <!-- Number of features -->
     <g transform="translate(36.188125 395.791406) rotate(-90) scale(0.34 -0.34)">
      <defs>
       <path id="Helvetica-4e" d="M 488 4591 
L 1222 4591 
L 3541 872 
L 3541 4591 
L 4131 4591 
L 4131 0 
L 3434 0 
L 1081 3716 
L 1081 0 
L 488 0 
L 488 4591 
z
M 2269 4591 
L 2269 4591 
z
" transform="scale(0.015625)"/>
       <path id="Helvetica-6d" d="M 413 3347 
L 969 3347 
L 969 2872 
Q 1169 3119 1331 3231 
Q 1609 3422 1963 3422 
Q 2363 3422 2606 3225 
Q 2744 3113 2856 2894 
Q 3044 3163 3297 3292 
Q 3550 3422 3866 3422 
Q 4541 3422 4784 2934 
Q 4916 2672 4916 2228 
L 4916 0 
L 4331 0 
L 4331 2325 
Q 4331 2659 4164 2784 
Q 3997 2909 3756 2909 
Q 3425 2909 3186 2687 
Q 2947 2466 2947 1947 
L 2947 0 
L 2375 0 
L 2375 2184 
Q 2375 2525 2294 2681 
Q 2166 2916 1816 2916 
Q 1497 2916 1236 2669 
Q 975 2422 975 1775 
L 975 0 
L 413 0 
L 413 3347 
z
" transform="scale(0.015625)"/>
       <path id="Helvetica-62" d="M 369 4606 
L 916 4606 
L 916 2941 
Q 1100 3181 1356 3307 
Q 1613 3434 1913 3434 
Q 2538 3434 2927 3004 
Q 3316 2575 3316 1738 
Q 3316 944 2931 419 
Q 2547 -106 1866 -106 
Q 1484 -106 1222 78 
Q 1066 188 888 428 
L 888 0 
L 369 0 
L 369 4606 
z
M 1831 391 
Q 2288 391 2514 753 
Q 2741 1116 2741 1709 
Q 2741 2238 2514 2584 
Q 2288 2931 1847 2931 
Q 1463 2931 1173 2647 
Q 884 2363 884 1709 
Q 884 1238 1003 944 
Q 1225 391 1831 391 
z
" transform="scale(0.015625)"/>
       <path id="Helvetica-65" d="M 1806 3422 
Q 2163 3422 2497 3255 
Q 2831 3088 3006 2822 
Q 3175 2569 3231 2231 
Q 3281 2000 3281 1494 
L 828 1494 
Q 844 984 1069 676 
Q 1294 369 1766 369 
Q 2206 369 2469 659 
Q 2619 828 2681 1050 
L 3234 1050 
Q 3213 866 3089 639 
Q 2966 413 2813 269 
Q 2556 19 2178 -69 
Q 1975 -119 1719 -119 
Q 1094 -119 659 336 
Q 225 791 225 1609 
Q 225 2416 662 2919 
Q 1100 3422 1806 3422 
z
M 2703 1941 
Q 2669 2306 2544 2525 
Q 2313 2931 1772 2931 
Q 1384 2931 1121 2651 
Q 859 2372 844 1941 
L 2703 1941 
z
M 1753 3428 
L 1753 3428 
z
" transform="scale(0.015625)"/>
       <path id="Helvetica-6f" d="M 1741 363 
Q 2300 363 2508 786 
Q 2716 1209 2716 1728 
Q 2716 2197 2566 2491 
Q 2328 2953 1747 2953 
Q 1231 2953 997 2559 
Q 763 2166 763 1609 
Q 763 1075 997 719 
Q 1231 363 1741 363 
z
M 1763 3444 
Q 2409 3444 2856 3012 
Q 3303 2581 3303 1744 
Q 3303 934 2909 406 
Q 2516 -122 1688 -122 
Q 997 -122 590 345 
Q 184 813 184 1600 
Q 184 2444 612 2944 
Q 1041 3444 1763 3444 
z
M 1744 3428 
L 1744 3428 
z
" transform="scale(0.015625)"/>
       <path id="Helvetica-66" d="M 553 3856 
Q 566 4206 675 4369 
Q 872 4656 1434 4656 
Q 1488 4656 1544 4653 
Q 1600 4650 1672 4644 
L 1672 4131 
Q 1584 4138 1545 4139 
Q 1506 4141 1472 4141 
Q 1216 4141 1166 4008 
Q 1116 3875 1116 3331 
L 1672 3331 
L 1672 2888 
L 1109 2888 
L 1109 0 
L 553 0 
L 553 2888 
L 88 2888 
L 88 3331 
L 553 3331 
L 553 3856 
z
" transform="scale(0.015625)"/>
       <path id="Helvetica-74" d="M 525 4281 
L 1094 4281 
L 1094 3347 
L 1628 3347 
L 1628 2888 
L 1094 2888 
L 1094 703 
Q 1094 528 1213 469 
Q 1278 434 1431 434 
Q 1472 434 1519 436 
Q 1566 438 1628 444 
L 1628 0 
Q 1531 -28 1426 -40 
Q 1322 -53 1200 -53 
Q 806 -53 665 148 
Q 525 350 525 672 
L 525 2888 
L 72 2888 
L 72 3347 
L 525 3347 
L 525 4281 
z
" transform="scale(0.015625)"/>
       <path id="Helvetica-73" d="M 747 1050 
Q 772 769 888 619 
Q 1100 347 1625 347 
Q 1938 347 2175 483 
Q 2413 619 2413 903 
Q 2413 1119 2222 1231 
Q 2100 1300 1741 1391 
L 1294 1503 
Q 866 1609 663 1741 
Q 300 1969 300 2372 
Q 300 2847 642 3140 
Q 984 3434 1563 3434 
Q 2319 3434 2653 2991 
Q 2863 2709 2856 2384 
L 2325 2384 
Q 2309 2575 2191 2731 
Q 1997 2953 1519 2953 
Q 1200 2953 1036 2831 
Q 872 2709 872 2509 
Q 872 2291 1088 2159 
Q 1213 2081 1456 2022 
L 1828 1931 
Q 2434 1784 2641 1647 
Q 2969 1431 2969 969 
Q 2969 522 2630 197 
Q 2291 -128 1597 -128 
Q 850 -128 539 211 
Q 228 550 206 1050 
L 747 1050 
z
M 1578 3428 
L 1578 3428 
z
" transform="scale(0.015625)"/>
      </defs>
      <use xlink:href="#Helvetica-4e"/>
      <use xlink:href="#Helvetica-75" x="72.216797"/>
      <use xlink:href="#Helvetica-6d" x="127.832031"/>
      <use xlink:href="#Helvetica-62" x="211.132812"/>
      <use xlink:href="#Helvetica-65" x="266.748047"/>
      <use xlink:href="#Helvetica-72" x="322.363281"/>
      <use xlink:href="#Helvetica-20" x="355.664062"/>
      <use xlink:href="#Helvetica-6f" x="383.447266"/>
      <use xlink:href="#Helvetica-66" x="439.0625"/>
      <use xlink:href="#Helvetica-20" x="466.845703"/>
      <use xlink:href="#Helvetica-66" x="494.628906"/>
      <use xlink:href="#Helvetica-65" x="522.412109"/>
      <use xlink:href="#Helvetica-61" x="578.027344"/>
      <use xlink:href="#Helvetica-74" x="633.642578"/>
      <use xlink:href="#Helvetica-75" x="661.425781"/>
      <use xlink:href="#Helvetica-72" x="717.041016"/>
      <use xlink:href="#Helvetica-65" x="750.341797"/>
      <use xlink:href="#Helvetica-73" x="805.957031"/>
     </g>
    </g>
   </g>
   <g id="patch_3">
    <path d="M 134.116364 489.78 
L 146.094545 489.78 
L 146.094545 489.297279 
L 134.116364 489.297279 
z
" clip-path="url(#pd7945c3944)" style="fill: #c0c0c0; stroke: #808080; stroke-width: 1.25; stroke-linejoin: miter"/>
   </g>
   <g id="patch_4">
    <path d="M 146.094545 489.78 
L 158.072727 489.78 
L 158.072727 487.849116 
L 146.094545 487.849116 
z
" clip-path="url(#pd7945c3944)" style="fill: #c0c0c0; stroke: #808080; stroke-width: 1.25; stroke-linejoin: miter"/>
   </g>
   <g id="patch_5">
    <path d="M 158.072727 489.78 
L 170.050909 489.78 
L 170.050909 485.918231 
L 158.072727 485.918231 
z
" clip-path="url(#pd7945c3944)" style="fill: #c0c0c0; stroke: #808080; stroke-width: 1.25; stroke-linejoin: miter"/>
   </g>
   <g id="patch_6">
    <path d="M 170.050909 489.78 
L 182.029091 489.78 
L 182.029091 481.09102 
L 170.050909 481.09102 
z
" clip-path="url(#pd7945c3944)" style="fill: #c0c0c0; stroke: #808080; stroke-width: 1.25; stroke-linejoin: miter"/>
   </g>
   <g id="patch_7">
    <path d="M 182.029091 489.78 
L 194.007273 489.78 
L 194.007273 455.024082 
L 182.029091 455.024082 
z
" clip-path="url(#pd7945c3944)" style="fill: #c0c0c0; stroke: #808080; stroke-width: 1.25; stroke-linejoin: miter"/>
   </g>
   <g id="patch_8">
    <path d="M 194.007273 489.78 
L 205.985455 489.78 
L 205.985455 379.719592 
L 194.007273 379.719592 
z
" clip-path="url(#pd7945c3944)" style="fill: #c0c0c0; stroke: #808080; stroke-width: 1.25; stroke-linejoin: miter"/>
   </g>
   <g id="patch_9">
    <path d="M 205.985455 489.78 
L 217.963636 489.78 
L 217.963636 198.699184 
L 205.985455 198.699184 
z
" clip-path="url(#pd7945c3944)" style="fill: #c0c0c0; stroke: #808080; stroke-width: 1.25; stroke-linejoin: miter"/>
   </g>
   <g id="patch_10">
    <path d="M 217.963636 489.78 
L 229.941818 489.78 
L 229.941818 47.124762 
L 217.963636 47.124762 
z
" clip-path="url(#pd7945c3944)" style="fill: #c0c0c0; stroke: #808080; stroke-width: 1.25; stroke-linejoin: miter"/>
   </g>
   <g id="patch_11">
    <path d="M 229.941818 489.78 
L 241.92 489.78 
L 241.92 33.608571 
L 229.941818 33.608571 
z
" clip-path="url(#pd7945c3944)" style="fill: #c0c0c0; stroke: #808080; stroke-width: 1.25; stroke-linejoin: miter"/>
   </g>
   <g id="patch_12">
    <path d="M 241.92 489.78 
L 253.898182 489.78 
L 253.898182 199.181905 
L 241.92 199.181905 
z
" clip-path="url(#pd7945c3944)" style="fill: #c0c0c0; stroke: #808080; stroke-width: 1.25; stroke-linejoin: miter"/>
   </g>
   <g id="patch_13">
    <path d="M 253.898182 489.78 
L 265.876364 489.78 
L 265.876364 368.617007 
L 253.898182 368.617007 
z
" clip-path="url(#pd7945c3944)" style="fill: #c0c0c0; stroke: #808080; stroke-width: 1.25; stroke-linejoin: miter"/>
   </g>
   <g id="patch_14">
    <path d="M 265.876364 489.78 
L 277.854545 489.78 
L 277.854545 416.889116 
L 265.876364 416.889116 
z
" clip-path="url(#pd7945c3944)" style="fill: #c0c0c0; stroke: #808080; stroke-width: 1.25; stroke-linejoin: miter"/>
   </g>
   <g id="patch_15">
    <path d="M 277.854545 489.78 
L 289.832727 489.78 
L 289.832727 438.611565 
L 277.854545 438.611565 
z
" clip-path="url(#pd7945c3944)" style="fill: #c0c0c0; stroke: #808080; stroke-width: 1.25; stroke-linejoin: miter"/>
   </g>
   <g id="patch_16">
    <path d="M 289.832727 489.78 
L 301.810909 489.78 
L 301.810909 455.024082 
L 289.832727 455.024082 
z
" clip-path="url(#pd7945c3944)" style="fill: #c0c0c0; stroke: #808080; stroke-width: 1.25; stroke-linejoin: miter"/>
   </g>
   <g id="patch_17">
    <path d="M 301.810909 489.78 
L 313.789091 489.78 
L 313.789091 457.437687 
L 301.810909 457.437687 
z
" clip-path="url(#pd7945c3944)" style="fill: #c0c0c0; stroke: #808080; stroke-width: 1.25; stroke-linejoin: miter"/>
   </g>
   <g id="patch_18">
    <path d="M 313.789091 489.78 
L 325.767273 489.78 
L 325.767273 453.575918 
L 313.789091 453.575918 
z
" clip-path="url(#pd7945c3944)" style="fill: #c0c0c0; stroke: #808080; stroke-width: 1.25; stroke-linejoin: miter"/>
   </g>
   <g id="patch_19">
    <path d="M 325.767273 489.78 
L 337.745455 489.78 
L 337.745455 465.643946 
L 325.767273 465.643946 
z
" clip-path="url(#pd7945c3944)" style="fill: #c0c0c0; stroke: #808080; stroke-width: 1.25; stroke-linejoin: miter"/>
   </g>
   <g id="patch_20">
    <path d="M 337.745455 489.78 
L 349.723636 489.78 
L 349.723636 462.264898 
L 337.745455 462.264898 
z
" clip-path="url(#pd7945c3944)" style="fill: #c0c0c0; stroke: #808080; stroke-width: 1.25; stroke-linejoin: miter"/>
   </g>
   <g id="patch_21">
    <path d="M 349.723636 489.78 
L 361.701818 489.78 
L 361.701818 460.334014 
L 349.723636 460.334014 
z
" clip-path="url(#pd7945c3944)" style="fill: #c0c0c0; stroke: #808080; stroke-width: 1.25; stroke-linejoin: miter"/>
   </g>
   <g id="patch_22">
    <path d="M 361.701818 489.78 
L 373.68 489.78 
L 373.68 467.092109 
L 361.701818 467.092109 
z
" clip-path="url(#pd7945c3944)" style="fill: #c0c0c0; stroke: #808080; stroke-width: 1.25; stroke-linejoin: miter"/>
   </g>
   <g id="patch_23">
    <path d="M 373.68 489.78 
L 385.658182 489.78 
L 385.658182 467.092109 
L 373.68 467.092109 
z
" clip-path="url(#pd7945c3944)" style="fill: #c0c0c0; stroke: #808080; stroke-width: 1.25; stroke-linejoin: miter"/>
   </g>
   <g id="patch_24">
    <path d="M 385.658182 489.78 
L 397.636364 489.78 
L 397.636364 467.57483 
L 385.658182 467.57483 
z
" clip-path="url(#pd7945c3944)" style="fill: #c0c0c0; stroke: #808080; stroke-width: 1.25; stroke-linejoin: miter"/>
   </g>
   <g id="patch_25">
    <path d="M 397.636364 489.78 
L 409.614545 489.78 
L 409.614545 473.367483 
L 397.636364 473.367483 
z
" clip-path="url(#pd7945c3944)" style="fill: #c0c0c0; stroke: #808080; stroke-width: 1.25; stroke-linejoin: miter"/>
   </g>
   <g id="patch_26">
    <path d="M 409.614545 489.78 
L 421.592727 489.78 
L 421.592727 477.711973 
L 409.614545 477.711973 
z
" clip-path="url(#pd7945c3944)" style="fill: #c0c0c0; stroke: #808080; stroke-width: 1.25; stroke-linejoin: miter"/>
   </g>
   <g id="patch_27">
    <path d="M 421.592727 489.78 
L 433.570909 489.78 
L 433.570909 472.884762 
L 421.592727 472.884762 
z
" clip-path="url(#pd7945c3944)" style="fill: #c0c0c0; stroke: #808080; stroke-width: 1.25; stroke-linejoin: miter"/>
   </g>
   <g id="patch_28">
    <path d="M 433.570909 489.78 
L 445.549091 489.78 
L 445.549091 480.608299 
L 433.570909 480.608299 
z
" clip-path="url(#pd7945c3944)" style="fill: #c0c0c0; stroke: #808080; stroke-width: 1.25; stroke-linejoin: miter"/>
   </g>
   <g id="patch_29">
    <path d="M 445.549091 489.78 
L 457.527273 489.78 
L 457.527273 480.608299 
L 445.549091 480.608299 
z
" clip-path="url(#pd7945c3944)" style="fill: #c0c0c0; stroke: #808080; stroke-width: 1.25; stroke-linejoin: miter"/>
   </g>
   <g id="patch_30">
    <path d="M 457.527273 489.78 
L 469.505455 489.78 
L 469.505455 480.608299 
L 457.527273 480.608299 
z
" clip-path="url(#pd7945c3944)" style="fill: #c0c0c0; stroke: #808080; stroke-width: 1.25; stroke-linejoin: miter"/>
   </g>
   <g id="patch_31">
    <path d="M 469.505455 489.78 
L 481.483636 489.78 
L 481.483636 480.608299 
L 469.505455 480.608299 
z
" clip-path="url(#pd7945c3944)" style="fill: #c0c0c0; stroke: #808080; stroke-width: 1.25; stroke-linejoin: miter"/>
   </g>
   <g id="patch_32">
    <path d="M 481.483636 489.78 
L 493.461818 489.78 
L 493.461818 483.504626 
L 481.483636 483.504626 
z
" clip-path="url(#pd7945c3944)" style="fill: #c0c0c0; stroke: #808080; stroke-width: 1.25; stroke-linejoin: miter"/>
   </g>
   <g id="patch_33">
    <path d="M 493.461818 489.78 
L 505.44 489.78 
L 505.44 482.539184 
L 493.461818 482.539184 
z
" clip-path="url(#pd7945c3944)" style="fill: #c0c0c0; stroke: #808080; stroke-width: 1.25; stroke-linejoin: miter"/>
   </g>
   <g id="patch_34">
    <path d="M 505.44 489.78 
L 517.418182 489.78 
L 517.418182 484.952789 
L 505.44 484.952789 
z
" clip-path="url(#pd7945c3944)" style="fill: #c0c0c0; stroke: #808080; stroke-width: 1.25; stroke-linejoin: miter"/>
   </g>
   <g id="patch_35">
    <path d="M 517.418182 489.78 
L 529.396364 489.78 
L 529.396364 487.366395 
L 517.418182 487.366395 
z
" clip-path="url(#pd7945c3944)" style="fill: #c0c0c0; stroke: #808080; stroke-width: 1.25; stroke-linejoin: miter"/>
   </g>
   <g id="patch_36">
    <path d="M 529.396364 489.78 
L 541.374545 489.78 
L 541.374545 485.43551 
L 529.396364 485.43551 
z
" clip-path="url(#pd7945c3944)" style="fill: #c0c0c0; stroke: #808080; stroke-width: 1.25; stroke-linejoin: miter"/>
   </g>
   <g id="patch_37">
    <path d="M 541.374545 489.78 
L 553.352727 489.78 
L 553.352727 488.331837 
L 541.374545 488.331837 
z
" clip-path="url(#pd7945c3944)" style="fill: #c0c0c0; stroke: #808080; stroke-width: 1.25; stroke-linejoin: miter"/>
   </g>
   <g id="patch_38">
    <path d="M 553.352727 489.78 
L 565.330909 489.78 
L 565.330909 488.814558 
L 553.352727 488.814558 
z
" clip-path="url(#pd7945c3944)" style="fill: #c0c0c0; stroke: #808080; stroke-width: 1.25; stroke-linejoin: miter"/>
   </g>
   <g id="patch_39">
    <path d="M 565.330909 489.78 
L 577.309091 489.78 
L 577.309091 487.366395 
L 565.330909 487.366395 
z
" clip-path="url(#pd7945c3944)" style="fill: #c0c0c0; stroke: #808080; stroke-width: 1.25; stroke-linejoin: miter"/>
   </g>
   <g id="patch_40">
    <path d="M 577.309091 489.78 
L 589.287273 489.78 
L 589.287273 487.849116 
L 577.309091 487.849116 
z
" clip-path="url(#pd7945c3944)" style="fill: #c0c0c0; stroke: #808080; stroke-width: 1.25; stroke-linejoin: miter"/>
   </g>
   <g id="patch_41">
    <path d="M 589.287273 489.78 
L 601.265455 489.78 
L 601.265455 489.297279 
L 589.287273 489.297279 
z
" clip-path="url(#pd7945c3944)" style="fill: #c0c0c0; stroke: #808080; stroke-width: 1.25; stroke-linejoin: miter"/>
   </g>
   <g id="patch_42">
    <path d="M 601.265455 489.78 
L 613.243636 489.78 
L 613.243636 488.331837 
L 601.265455 488.331837 
z
" clip-path="url(#pd7945c3944)" style="fill: #c0c0c0; stroke: #808080; stroke-width: 1.25; stroke-linejoin: miter"/>
   </g>
   <g id="line2d_14">
    <path d="M 445.590182 489.78 
L 445.590182 10.8 
" clip-path="url(#pd7945c3944)" style="fill: none; stroke-dasharray: 12,12; stroke-dashoffset: 0; stroke: #808080; stroke-width: 1.5"/>
   </g>
   <g id="patch_43">
    <path d="M 110.16 489.78 
L 110.16 10.8 
" style="fill: none; stroke: #000000; stroke-width: 0.8; stroke-linejoin: miter; stroke-linecap: square"/>
   </g>
   <g id="patch_44">
    <path d="M 110.16 489.78 
L 637.2 489.78 
" style="fill: none; stroke: #000000; stroke-width: 0.8; stroke-linejoin: miter; stroke-linecap: square"/>
   </g>
  </g>
 </g>
 <defs>
  <clipPath id="pd7945c3944">
   <rect x="110.16" y="10.8" width="527.04" height="478.98"/>
  </clipPath>
 </defs>
</svg>
