<?xml version="1.0" encoding="utf-8" standalone="no"?>
<!DOCTYPE svg PUBLIC "-//W3C//DTD SVG 1.1//EN"
  "http://www.w3.org/Graphics/SVG/1.1/DTD/svg11.dtd">
<svg xmlns:xlink="http://www.w3.org/1999/xlink" width="615.561875pt" height="656.546624pt" viewBox="0 0 615.561875 656.546624" xmlns="http://www.w3.org/2000/svg" version="1.1">
 <metadata>
  <rdf:RDF xmlns:dc="http://purl.org/dc/elements/1.1/" xmlns:cc="http://creativecommons.org/ns#" xmlns:rdf="http://www.w3.org/1999/02/22-rdf-syntax-ns#">
   <cc:Work>
    <dc:type rdf:resource="http://purl.org/dc/dcmitype/StillImage"/>
    <dc:date>2025-11-09T13:43:46.085089</dc:date>
    <dc:format>image/svg+xml</dc:format>
    <dc:creator>
     <cc:Agent>
      <dc:title>Matplotlib v3.9.1, https://matplotlib.org/</dc:title>
     </cc:Agent>
    </dc:creator>
   </cc:Work>
  </rdf:RDF>
 </metadata>
 <defs>
  <style type="text/css">*{stroke-linejoin: round; stroke-linecap: butt}</style>
 </defs>
 <g id="figure_1">
  <g id="patch_1">
   <path d="M 0 656.546624 
L 615.561875 656.546624 
L 615.561875 -0 
L 0 -0 
L 0 656.546624 
z
" style="fill: none"/>
  </g>
  <g id="axes_1">
   <g id="patch_2">
    <path d="M 106.161875 339.84 
L 608.361875 339.84 
L 608.361875 7.2 
L 106.161875 7.2 
L 106.161875 339.84 
z
" style="fill: none"/>
   </g>
   <g id="matplotlib.axis_1">
    <g id="xtick_1">
     <g id="line2d_1">
      <defs>
       <path id="mec446763e2" d="M 0 0 
L 0 6 
" style="stroke: #000000; stroke-width: 0.8"/>
      </defs>
      <g>
       <use xlink:href="#mec446763e2" x="156.381875" y="339.84" style="stroke: #000000; stroke-width: 0.8"/>
      </g>
     </g>
     <g id="text_1">
      <!-- $\langle x_t \, x_{t+1}^3\rangle$ -->
      <g transform="translate(52.522031 468.346071) rotate(-45) scale(0.34 -0.34)">
       <defs>
        <path id="DejaVuSans-27e8" d="M 572 2006 
L 1453 4856 
L 1984 4856 
L 1103 2006 
L 1984 -844 
L 1453 -844 
L 572 2006 
z
" transform="scale(0.015625)"/>
        <path id="DejaVuSans-Oblique-78" d="M 3841 3500 
L 2234 1784 
L 3219 0 
L 2559 0 
L 1819 1388 
L 531 0 
L -166 0 
L 1556 1844 
L 641 3500 
L 1300 3500 
L 1972 2234 
L 3144 3500 
L 3841 3500 
z
" transform="scale(0.015625)"/>
        <path id="DejaVuSans-Oblique-74" d="M 2706 3500 
L 2619 3053 
L 1472 3053 
L 1100 1153 
Q 1081 1047 1072 975 
Q 1063 903 1063 863 
Q 1063 663 1183 572 
Q 1303 481 1569 481 
L 2150 481 
L 2053 0 
L 1503 0 
Q 991 0 739 200 
Q 488 400 488 806 
Q 488 878 497 964 
Q 506 1050 525 1153 
L 897 3053 
L 409 3053 
L 500 3500 
L 978 3500 
L 1172 4494 
L 1747 4494 
L 1556 3500 
L 2706 3500 
z
" transform="scale(0.015625)"/>
        <path id="DejaVuSans-33" d="M 2597 2516 
Q 3050 2419 3304 2112 
Q 3559 1806 3559 1356 
Q 3559 666 3084 287 
Q 2609 -91 1734 -91 
Q 1441 -91 1130 -33 
Q 819 25 488 141 
L 488 750 
Q 750 597 1062 519 
Q 1375 441 1716 441 
Q 2309 441 2620 675 
Q 2931 909 2931 1356 
Q 2931 1769 2642 2001 
Q 2353 2234 1838 2234 
L 1294 2234 
L 1294 2753 
L 1863 2753 
Q 2328 2753 2575 2939 
Q 2822 3125 2822 3475 
Q 2822 3834 2567 4026 
Q 2313 4219 1838 4219 
Q 1578 4219 1281 4162 
Q 984 4106 628 3988 
L 628 4550 
Q 988 4650 1302 4700 
Q 1616 4750 1894 4750 
Q 2613 4750 3031 4423 
Q 3450 4097 3450 3541 
Q 3450 3153 3228 2886 
Q 3006 2619 2597 2516 
z
" transform="scale(0.015625)"/>
        <path id="DejaVuSans-2b" d="M 2944 4013 
L 2944 2272 
L 4684 2272 
L 4684 1741 
L 2944 1741 
L 2944 0 
L 2419 0 
L 2419 1741 
L 678 1741 
L 678 2272 
L 2419 2272 
L 2419 4013 
L 2944 4013 
z
" transform="scale(0.015625)"/>
        <path id="DejaVuSans-31" d="M 794 531 
L 1825 531 
L 1825 4091 
L 703 3866 
L 703 4441 
L 1819 4666 
L 2450 4666 
L 2450 531 
L 3481 531 
L 3481 0 
L 794 0 
L 794 531 
z
" transform="scale(0.015625)"/>
        <path id="DejaVuSans-27e9" d="M 1925 2006 
L 1044 -844 
L 513 -844 
L 1394 2006 
L 513 4856 
L 1044 4856 
L 1925 2006 
z
" transform="scale(0.015625)"/>
       </defs>
       <use xlink:href="#DejaVuSans-27e8" transform="translate(0 0.765625)"/>
       <use xlink:href="#DejaVuSans-Oblique-78" transform="translate(39.013672 0.765625)"/>
       <use xlink:href="#DejaVuSans-Oblique-74" transform="translate(98.193359 -15.640625) scale(0.7)"/>
       <use xlink:href="#DejaVuSans-Oblique-78" transform="translate(144.6097 0.765625)"/>
       <use xlink:href="#DejaVuSans-33" transform="translate(208.255533 39.046875) scale(0.7)"/>
       <use xlink:href="#DejaVuSans-Oblique-74" transform="translate(203.789387 -26.578125) scale(0.7)"/>
       <use xlink:href="#DejaVuSans-2b" transform="translate(244.873372 -26.578125) scale(0.7)"/>
       <use xlink:href="#DejaVuSans-31" transform="translate(317.163411 -26.578125) scale(0.7)"/>
       <use xlink:href="#DejaVuSans-27e9" transform="translate(364.433918 0.765625)"/>
      </g>
     </g>
    </g>
    <g id="xtick_2">
     <g id="line2d_2">
      <g>
       <use xlink:href="#mec446763e2" x="256.821875" y="339.84" style="stroke: #000000; stroke-width: 0.8"/>
      </g>
     </g>
     <g id="text_2">
      <!-- $C^\prime_{1,2}(\boldsymbol{x};1) $ -->
      <g transform="translate(138.296636 477.962723) rotate(-45) scale(0.34 -0.34)">
       <defs>
        <path id="DejaVuSans-Oblique-43" d="M 4447 4306 
L 4319 3641 
Q 4019 3944 3683 4091 
Q 3347 4238 2956 4238 
Q 2422 4238 2017 3981 
Q 1613 3725 1319 3200 
Q 1131 2863 1032 2486 
Q 934 2109 934 1728 
Q 934 1091 1264 756 
Q 1594 422 2222 422 
Q 2656 422 3056 561 
Q 3456 700 3834 978 
L 3688 231 
Q 3316 72 2936 -9 
Q 2556 -91 2175 -91 
Q 1278 -91 773 396 
Q 269 884 269 1753 
Q 269 2309 461 2846 
Q 653 3384 1013 3828 
Q 1394 4300 1883 4525 
Q 2372 4750 3022 4750 
Q 3422 4750 3780 4639 
Q 4138 4528 4447 4306 
z
" transform="scale(0.015625)"/>
        <path id="Cmsy10-30" d="M 225 347 
Q 184 359 184 409 
L 966 3316 
Q 1003 3434 1093 3506 
Q 1184 3578 1300 3578 
Q 1450 3578 1564 3479 
Q 1678 3381 1678 3231 
Q 1678 3166 1644 3084 
L 488 319 
Q 466 275 428 275 
Q 394 275 320 306 
Q 247 338 225 347 
z
" transform="scale(0.015625)"/>
        <path id="DejaVuSans-2c" d="M 750 794 
L 1409 794 
L 1409 256 
L 897 -744 
L 494 -744 
L 750 256 
L 750 794 
z
" transform="scale(0.015625)"/>
        <path id="DejaVuSans-32" d="M 1228 531 
L 3431 531 
L 3431 0 
L 469 0 
L 469 531 
Q 828 903 1448 1529 
Q 2069 2156 2228 2338 
Q 2531 2678 2651 2914 
Q 2772 3150 2772 3378 
Q 2772 3750 2511 3984 
Q 2250 4219 1831 4219 
Q 1534 4219 1204 4116 
Q 875 4013 500 3803 
L 500 4441 
Q 881 4594 1212 4672 
Q 1544 4750 1819 4750 
Q 2544 4750 2975 4387 
Q 3406 4025 3406 3419 
Q 3406 3131 3298 2873 
Q 3191 2616 2906 2266 
Q 2828 2175 2409 1742 
Q 1991 1309 1228 531 
z
" transform="scale(0.015625)"/>
        <path id="DejaVuSans-28" d="M 1984 4856 
Q 1566 4138 1362 3434 
Q 1159 2731 1159 2009 
Q 1159 1288 1364 580 
Q 1569 -128 1984 -844 
L 1484 -844 
Q 1016 -109 783 600 
Q 550 1309 550 2009 
Q 550 2706 781 3412 
Q 1013 4119 1484 4856 
L 1984 4856 
z
" transform="scale(0.015625)"/>
        <path id="DejaVuSans-BoldOblique-78" d="M 1416 1791 
L 488 3500 
L 1650 3500 
L 2169 2463 
L 3078 3500 
L 4294 3500 
L 2700 1797 
L 3675 0 
L 2509 0 
L 1959 1106 
L 953 0 
L -263 0 
L 1416 1791 
z
" transform="scale(0.015625)"/>
        <path id="DejaVuSans-3b" d="M 750 3309 
L 1409 3309 
L 1409 2516 
L 750 2516 
L 750 3309 
z
M 750 794 
L 1409 794 
L 1409 256 
L 897 -744 
L 494 -744 
L 750 256 
L 750 794 
z
" transform="scale(0.015625)"/>
        <path id="DejaVuSans-29" d="M 513 4856 
L 1013 4856 
Q 1481 4119 1714 3412 
Q 1947 2706 1947 2009 
Q 1947 1309 1714 600 
Q 1481 -109 1013 -844 
L 513 -844 
Q 928 -128 1133 580 
Q 1338 1288 1338 2009 
Q 1338 2731 1133 3434 
Q 928 4138 513 4856 
z
" transform="scale(0.015625)"/>
       </defs>
       <use xlink:href="#DejaVuSans-Oblique-43" transform="translate(0 0.584375)"/>
       <use xlink:href="#Cmsy10-30" transform="translate(77.02474 38.865625) scale(0.7)"/>
       <use xlink:href="#DejaVuSans-31" transform="translate(69.824219 -26.759375) scale(0.7)"/>
       <use xlink:href="#DejaVuSans-2c" transform="translate(114.360352 -26.759375) scale(0.7)"/>
       <use xlink:href="#DejaVuSans-32" transform="translate(150.249023 -26.759375) scale(0.7)"/>
       <use xlink:href="#DejaVuSans-28" transform="translate(197.519531 0.584375)"/>
       <use xlink:href="#DejaVuSans-BoldOblique-78" transform="translate(236.533203 0.584375)"/>
       <use xlink:href="#DejaVuSans-3b" transform="translate(301.035156 0.584375)"/>
       <use xlink:href="#DejaVuSans-31" transform="translate(354.208984 0.584375)"/>
       <use xlink:href="#DejaVuSans-29" transform="translate(417.832031 0.584375)"/>
      </g>
     </g>
    </g>
    <g id="xtick_3">
     <g id="line2d_3">
      <g>
       <use xlink:href="#mec446763e2" x="357.261875" y="339.84" style="stroke: #000000; stroke-width: 0.8"/>
      </g>
     </g>
     <g id="text_3">
      <!-- $p_{\text{uu}}(\boldsymbol{x})$ -->
      <g transform="translate(280.569074 439.255698) rotate(-45) scale(0.34 -0.34)">
       <defs>
        <path id="DejaVuSans-Oblique-70" d="M 3175 2156 
Q 3175 2616 2975 2859 
Q 2775 3103 2400 3103 
Q 2144 3103 1911 2972 
Q 1678 2841 1497 2591 
Q 1319 2344 1212 1994 
Q 1106 1644 1106 1300 
Q 1106 863 1306 627 
Q 1506 391 1875 391 
Q 2147 391 2380 519 
Q 2613 647 2778 891 
Q 2956 1147 3065 1494 
Q 3175 1841 3175 2156 
z
M 1394 2969 
Q 1625 3272 1939 3428 
Q 2253 3584 2638 3584 
Q 3175 3584 3472 3232 
Q 3769 2881 3769 2247 
Q 3769 1728 3584 1258 
Q 3400 788 3053 416 
Q 2822 169 2531 39 
Q 2241 -91 1919 -91 
Q 1547 -91 1294 64 
Q 1041 219 916 525 
L 556 -1331 
L -19 -1331 
L 922 3500 
L 1497 3500 
L 1394 2969 
z
" transform="scale(0.015625)"/>
        <path id="DejaVuSans-75" d="M 544 1381 
L 544 3500 
L 1119 3500 
L 1119 1403 
Q 1119 906 1312 657 
Q 1506 409 1894 409 
Q 2359 409 2629 706 
Q 2900 1003 2900 1516 
L 2900 3500 
L 3475 3500 
L 3475 0 
L 2900 0 
L 2900 538 
Q 2691 219 2414 64 
Q 2138 -91 1772 -91 
Q 1169 -91 856 284 
Q 544 659 544 1381 
z
M 1991 3584 
L 1991 3584 
z
" transform="scale(0.015625)"/>
       </defs>
       <use xlink:href="#DejaVuSans-Oblique-70" transform="translate(0 0.125)"/>
       <use xlink:href="#DejaVuSans-75" transform="translate(63.476562 -16.28125) scale(0.7)"/>
       <use xlink:href="#DejaVuSans-75" transform="translate(107.841797 -16.28125) scale(0.7)"/>
       <use xlink:href="#DejaVuSans-28" transform="translate(154.941406 0.125)"/>
       <use xlink:href="#DejaVuSans-BoldOblique-78" transform="translate(193.955078 0.125)"/>
       <use xlink:href="#DejaVuSans-29" transform="translate(258.457031 0.125)"/>
      </g>
     </g>
    </g>
    <g id="xtick_4">
     <g id="line2d_4">
      <g>
       <use xlink:href="#mec446763e2" x="457.701875" y="339.84" style="stroke: #000000; stroke-width: 0.8"/>
      </g>
     </g>
     <g id="text_4">
      <!-- MAE AR(2) predictor -->
      <g transform="translate(230.925438 588.633111) rotate(-45) scale(0.34 -0.34)">
       <defs>
        <path id="Helvetica-4d" d="M 472 4591 
L 1363 4591 
L 2681 709 
L 3991 4591 
L 4872 4591 
L 4872 0 
L 4281 0 
L 4281 2709 
Q 4281 2850 4287 3175 
Q 4294 3500 4294 3872 
L 2984 0 
L 2369 0 
L 1050 3872 
L 1050 3731 
Q 1050 3563 1058 3217 
Q 1066 2872 1066 2709 
L 1066 0 
L 472 0 
L 472 4591 
z
" transform="scale(0.015625)"/>
        <path id="Helvetica-41" d="M 2844 1881 
L 2147 3909 
L 1406 1881 
L 2844 1881 
z
M 1822 4591 
L 2525 4591 
L 4191 0 
L 3509 0 
L 3044 1375 
L 1228 1375 
L 731 0 
L 94 0 
L 1822 4591 
z
" transform="scale(0.015625)"/>
        <path id="Helvetica-45" d="M 547 4591 
L 3894 4591 
L 3894 4028 
L 1153 4028 
L 1153 2634 
L 3688 2634 
L 3688 2103 
L 1153 2103 
L 1153 547 
L 3941 547 
L 3941 0 
L 547 0 
L 547 4591 
z
M 2244 4591 
L 2244 4591 
z
" transform="scale(0.015625)"/>
        <path id="Helvetica-20" transform="scale(0.015625)"/>
        <path id="Helvetica-52" d="M 2622 2488 
Q 3059 2488 3314 2663 
Q 3569 2838 3569 3294 
Q 3569 3784 3213 3963 
Q 3022 4056 2703 4056 
L 1184 4056 
L 1184 2488 
L 2622 2488 
z
M 563 4591 
L 2688 4591 
Q 3213 4591 3553 4438 
Q 4200 4144 4200 3353 
Q 4200 2941 4029 2678 
Q 3859 2416 3553 2256 
Q 3822 2147 3958 1969 
Q 4094 1791 4109 1391 
L 4131 775 
Q 4141 513 4175 384 
Q 4231 166 4375 103 
L 4375 0 
L 3613 0 
Q 3581 59 3562 153 
Q 3544 247 3531 516 
L 3494 1281 
Q 3472 1731 3159 1884 
Q 2981 1969 2600 1969 
L 1184 1969 
L 1184 0 
L 563 0 
L 563 4591 
z
" transform="scale(0.015625)"/>
        <path id="Helvetica-28" d="M 1894 4666 
Q 1403 3713 1256 3263 
Q 1034 2578 1034 1681 
Q 1034 775 1288 25 
Q 1444 -438 1903 -1306 
L 1525 -1306 
Q 1069 -594 959 -397 
Q 850 -200 722 138 
Q 547 600 478 1125 
Q 444 1397 444 1644 
Q 444 2569 734 3291 
Q 919 3750 1503 4666 
L 1894 4666 
z
" transform="scale(0.015625)"/>
        <path id="Helvetica-32" d="M 200 0 
Q 231 578 439 1006 
Q 647 1434 1250 1784 
L 1850 2131 
Q 2253 2366 2416 2531 
Q 2672 2791 2672 3125 
Q 2672 3516 2437 3745 
Q 2203 3975 1813 3975 
Q 1234 3975 1013 3538 
Q 894 3303 881 2888 
L 309 2888 
Q 319 3472 525 3841 
Q 891 4491 1816 4491 
Q 2584 4491 2939 4075 
Q 3294 3659 3294 3150 
Q 3294 2613 2916 2231 
Q 2697 2009 2131 1694 
L 1703 1456 
Q 1397 1288 1222 1134 
Q 909 863 828 531 
L 3272 531 
L 3272 0 
L 200 0 
z
" transform="scale(0.015625)"/>
        <path id="Helvetica-29" d="M 222 -1306 
Q 719 -338 863 106 
Q 1081 778 1081 1681 
Q 1081 2584 828 3334 
Q 672 3797 213 4666 
L 591 4666 
Q 1072 3897 1173 3717 
Q 1275 3538 1394 3222 
Q 1544 2831 1608 2450 
Q 1672 2069 1672 1716 
Q 1672 791 1378 66 
Q 1194 -400 613 -1306 
L 222 -1306 
z
" transform="scale(0.015625)"/>
        <path id="Helvetica-70" d="M 1825 378 
Q 2219 378 2480 708 
Q 2741 1038 2741 1694 
Q 2741 2094 2625 2381 
Q 2406 2934 1825 2934 
Q 1241 2934 1025 2350 
Q 909 2038 909 1556 
Q 909 1169 1025 897 
Q 1244 378 1825 378 
z
M 369 3331 
L 916 3331 
L 916 2888 
Q 1084 3116 1284 3241 
Q 1569 3428 1953 3428 
Q 2522 3428 2919 2992 
Q 3316 2556 3316 1747 
Q 3316 653 2744 184 
Q 2381 -113 1900 -113 
Q 1522 -113 1266 53 
Q 1116 147 931 375 
L 931 -1334 
L 369 -1334 
L 369 3331 
z
" transform="scale(0.015625)"/>
        <path id="Helvetica-72" d="M 428 3347 
L 963 3347 
L 963 2769 
Q 1028 2938 1284 3180 
Q 1541 3422 1875 3422 
Q 1891 3422 1928 3419 
Q 1966 3416 2056 3406 
L 2056 2813 
Q 2006 2822 1964 2825 
Q 1922 2828 1872 2828 
Q 1447 2828 1219 2554 
Q 991 2281 991 1925 
L 991 0 
L 428 0 
L 428 3347 
z
" transform="scale(0.015625)"/>
        <path id="Helvetica-65" d="M 1806 3422 
Q 2163 3422 2497 3255 
Q 2831 3088 3006 2822 
Q 3175 2569 3231 2231 
Q 3281 2000 3281 1494 
L 828 1494 
Q 844 984 1069 676 
Q 1294 369 1766 369 
Q 2206 369 2469 659 
Q 2619 828 2681 1050 
L 3234 1050 
Q 3213 866 3089 639 
Q 2966 413 2813 269 
Q 2556 19 2178 -69 
Q 1975 -119 1719 -119 
Q 1094 -119 659 336 
Q 225 791 225 1609 
Q 225 2416 662 2919 
Q 1100 3422 1806 3422 
z
M 2703 1941 
Q 2669 2306 2544 2525 
Q 2313 2931 1772 2931 
Q 1384 2931 1121 2651 
Q 859 2372 844 1941 
L 2703 1941 
z
M 1753 3428 
L 1753 3428 
z
" transform="scale(0.015625)"/>
        <path id="Helvetica-64" d="M 769 1634 
Q 769 1097 997 734 
Q 1225 372 1728 372 
Q 2119 372 2370 708 
Q 2622 1044 2622 1672 
Q 2622 2306 2362 2611 
Q 2103 2916 1722 2916 
Q 1297 2916 1033 2591 
Q 769 2266 769 1634 
z
M 1616 3406 
Q 2000 3406 2259 3244 
Q 2409 3150 2600 2916 
L 2600 4606 
L 3141 4606 
L 3141 0 
L 2634 0 
L 2634 466 
Q 2438 156 2169 18 
Q 1900 -119 1553 -119 
Q 994 -119 584 351 
Q 175 822 175 1603 
Q 175 2334 548 2870 
Q 922 3406 1616 3406 
z
" transform="scale(0.015625)"/>
        <path id="Helvetica-69" d="M 413 3331 
L 984 3331 
L 984 0 
L 413 0 
L 413 3331 
z
M 413 4591 
L 984 4591 
L 984 3953 
L 413 3953 
L 413 4591 
z
" transform="scale(0.015625)"/>
        <path id="Helvetica-63" d="M 1703 3444 
Q 2269 3444 2623 3169 
Q 2978 2894 3050 2222 
L 2503 2222 
Q 2453 2531 2275 2736 
Q 2097 2941 1703 2941 
Q 1166 2941 934 2416 
Q 784 2075 784 1575 
Q 784 1072 996 728 
Q 1209 384 1666 384 
Q 2016 384 2220 598 
Q 2425 813 2503 1184 
L 3050 1184 
Q 2956 519 2581 211 
Q 2206 -97 1622 -97 
Q 966 -97 575 383 
Q 184 863 184 1581 
Q 184 2463 612 2953 
Q 1041 3444 1703 3444 
z
M 1616 3428 
L 1616 3428 
z
" transform="scale(0.015625)"/>
        <path id="Helvetica-74" d="M 525 4281 
L 1094 4281 
L 1094 3347 
L 1628 3347 
L 1628 2888 
L 1094 2888 
L 1094 703 
Q 1094 528 1213 469 
Q 1278 434 1431 434 
Q 1472 434 1519 436 
Q 1566 438 1628 444 
L 1628 0 
Q 1531 -28 1426 -40 
Q 1322 -53 1200 -53 
Q 806 -53 665 148 
Q 525 350 525 672 
L 525 2888 
L 72 2888 
L 72 3347 
L 525 3347 
L 525 4281 
z
" transform="scale(0.015625)"/>
        <path id="Helvetica-6f" d="M 1741 363 
Q 2300 363 2508 786 
Q 2716 1209 2716 1728 
Q 2716 2197 2566 2491 
Q 2328 2953 1747 2953 
Q 1231 2953 997 2559 
Q 763 2166 763 1609 
Q 763 1075 997 719 
Q 1231 363 1741 363 
z
M 1763 3444 
Q 2409 3444 2856 3012 
Q 3303 2581 3303 1744 
Q 3303 934 2909 406 
Q 2516 -122 1688 -122 
Q 997 -122 590 345 
Q 184 813 184 1600 
Q 184 2444 612 2944 
Q 1041 3444 1763 3444 
z
M 1744 3428 
L 1744 3428 
z
" transform="scale(0.015625)"/>
       </defs>
       <use xlink:href="#Helvetica-4d"/>
       <use xlink:href="#Helvetica-41" x="83.300781"/>
       <use xlink:href="#Helvetica-45" x="150"/>
       <use xlink:href="#Helvetica-20" x="216.699219"/>
       <use xlink:href="#Helvetica-41" x="244.482422"/>
       <use xlink:href="#Helvetica-52" x="311.181641"/>
       <use xlink:href="#Helvetica-28" x="383.398438"/>
       <use xlink:href="#Helvetica-32" x="416.699219"/>
       <use xlink:href="#Helvetica-29" x="472.314453"/>
       <use xlink:href="#Helvetica-20" x="505.615234"/>
       <use xlink:href="#Helvetica-70" x="533.398438"/>
       <use xlink:href="#Helvetica-72" x="589.013672"/>
       <use xlink:href="#Helvetica-65" x="622.314453"/>
       <use xlink:href="#Helvetica-64" x="677.929688"/>
       <use xlink:href="#Helvetica-69" x="733.544922"/>
       <use xlink:href="#Helvetica-63" x="755.761719"/>
       <use xlink:href="#Helvetica-74" x="805.761719"/>
       <use xlink:href="#Helvetica-6f" x="833.544922"/>
       <use xlink:href="#Helvetica-72" x="889.160156"/>
      </g>
     </g>
    </g>
    <g id="xtick_5">
     <g id="line2d_5">
      <g>
       <use xlink:href="#mec446763e2" x="558.141875" y="339.84" style="stroke: #000000; stroke-width: 0.8"/>
      </g>
     </g>
     <g id="text_5">
      <!-- std dev residuals -->
      <g transform="translate(346.961695 546.980986) rotate(-45) scale(0.34 -0.34)">
       <defs>
        <path id="Helvetica-73" d="M 747 1050 
Q 772 769 888 619 
Q 1100 347 1625 347 
Q 1938 347 2175 483 
Q 2413 619 2413 903 
Q 2413 1119 2222 1231 
Q 2100 1300 1741 1391 
L 1294 1503 
Q 866 1609 663 1741 
Q 300 1969 300 2372 
Q 300 2847 642 3140 
Q 984 3434 1563 3434 
Q 2319 3434 2653 2991 
Q 2863 2709 2856 2384 
L 2325 2384 
Q 2309 2575 2191 2731 
Q 1997 2953 1519 2953 
Q 1200 2953 1036 2831 
Q 872 2709 872 2509 
Q 872 2291 1088 2159 
Q 1213 2081 1456 2022 
L 1828 1931 
Q 2434 1784 2641 1647 
Q 2969 1431 2969 969 
Q 2969 522 2630 197 
Q 2291 -128 1597 -128 
Q 850 -128 539 211 
Q 228 550 206 1050 
L 747 1050 
z
M 1578 3428 
L 1578 3428 
z
" transform="scale(0.015625)"/>
        <path id="Helvetica-76" d="M 688 3347 
L 1581 622 
L 2516 3347 
L 3131 3347 
L 1869 0 
L 1269 0 
L 34 3347 
L 688 3347 
z
" transform="scale(0.015625)"/>
        <path id="Helvetica-75" d="M 975 3347 
L 975 1125 
Q 975 869 1056 706 
Q 1206 406 1616 406 
Q 2203 406 2416 931 
Q 2531 1213 2531 1703 
L 2531 3347 
L 3094 3347 
L 3094 0 
L 2563 0 
L 2569 494 
Q 2459 303 2297 172 
Q 1975 -91 1516 -91 
Q 800 -91 541 388 
Q 400 644 400 1072 
L 400 3347 
L 975 3347 
z
M 1747 3428 
L 1747 3428 
z
" transform="scale(0.015625)"/>
        <path id="Helvetica-61" d="M 844 891 
Q 844 647 1022 506 
Q 1200 366 1444 366 
Q 1741 366 2019 503 
Q 2488 731 2488 1250 
L 2488 1703 
Q 2384 1638 2221 1594 
Q 2059 1550 1903 1531 
L 1563 1488 
Q 1256 1447 1103 1359 
Q 844 1213 844 891 
z
M 2206 2028 
Q 2400 2053 2466 2191 
Q 2503 2266 2503 2406 
Q 2503 2694 2298 2823 
Q 2094 2953 1713 2953 
Q 1272 2953 1088 2716 
Q 984 2584 953 2325 
L 428 2325 
Q 444 2944 830 3186 
Q 1216 3428 1725 3428 
Q 2316 3428 2684 3203 
Q 3050 2978 3050 2503 
L 3050 575 
Q 3050 488 3086 434 
Q 3122 381 3238 381 
Q 3275 381 3322 386 
Q 3369 391 3422 400 
L 3422 -16 
Q 3291 -53 3222 -62 
Q 3153 -72 3034 -72 
Q 2744 -72 2613 134 
Q 2544 244 2516 444 
Q 2344 219 2022 53 
Q 1700 -113 1313 -113 
Q 847 -113 551 170 
Q 256 453 256 878 
Q 256 1344 547 1600 
Q 838 1856 1309 1916 
L 2206 2028 
z
M 1741 3428 
L 1741 3428 
z
" transform="scale(0.015625)"/>
        <path id="Helvetica-6c" d="M 428 4591 
L 991 4591 
L 991 0 
L 428 0 
L 428 4591 
z
" transform="scale(0.015625)"/>
       </defs>
       <use xlink:href="#Helvetica-73"/>
       <use xlink:href="#Helvetica-74" x="50"/>
       <use xlink:href="#Helvetica-64" x="77.783203"/>
       <use xlink:href="#Helvetica-20" x="133.398438"/>
       <use xlink:href="#Helvetica-64" x="161.181641"/>
       <use xlink:href="#Helvetica-65" x="216.796875"/>
       <use xlink:href="#Helvetica-76" x="272.412109"/>
       <use xlink:href="#Helvetica-20" x="322.412109"/>
       <use xlink:href="#Helvetica-72" x="350.195312"/>
       <use xlink:href="#Helvetica-65" x="383.496094"/>
       <use xlink:href="#Helvetica-73" x="439.111328"/>
       <use xlink:href="#Helvetica-69" x="489.111328"/>
       <use xlink:href="#Helvetica-64" x="511.328125"/>
       <use xlink:href="#Helvetica-75" x="566.943359"/>
       <use xlink:href="#Helvetica-61" x="622.558594"/>
       <use xlink:href="#Helvetica-6c" x="678.173828"/>
       <use xlink:href="#Helvetica-73" x="700.390625"/>
      </g>
      <!--  nonlinear prediction -->
      <g transform="translate(336.632058 608.858884) rotate(-45) scale(0.34 -0.34)">
       <defs>
        <path id="Helvetica-6e" d="M 413 3347 
L 947 3347 
L 947 2872 
Q 1184 3166 1450 3294 
Q 1716 3422 2041 3422 
Q 2753 3422 3003 2925 
Q 3141 2653 3141 2147 
L 3141 0 
L 2569 0 
L 2569 2109 
Q 2569 2416 2478 2603 
Q 2328 2916 1934 2916 
Q 1734 2916 1606 2875 
Q 1375 2806 1200 2600 
Q 1059 2434 1017 2257 
Q 975 2081 975 1753 
L 975 0 
L 413 0 
L 413 3347 
z
M 1734 3428 
L 1734 3428 
z
" transform="scale(0.015625)"/>
       </defs>
       <use xlink:href="#Helvetica-20"/>
       <use xlink:href="#Helvetica-6e" x="27.783203"/>
       <use xlink:href="#Helvetica-6f" x="83.398438"/>
       <use xlink:href="#Helvetica-6e" x="139.013672"/>
       <use xlink:href="#Helvetica-6c" x="194.628906"/>
       <use xlink:href="#Helvetica-69" x="216.845703"/>
       <use xlink:href="#Helvetica-6e" x="239.0625"/>
       <use xlink:href="#Helvetica-65" x="294.677734"/>
       <use xlink:href="#Helvetica-61" x="350.292969"/>
       <use xlink:href="#Helvetica-72" x="405.908203"/>
       <use xlink:href="#Helvetica-20" x="439.208984"/>
       <use xlink:href="#Helvetica-70" x="466.992188"/>
       <use xlink:href="#Helvetica-72" x="522.607422"/>
       <use xlink:href="#Helvetica-65" x="555.908203"/>
       <use xlink:href="#Helvetica-64" x="611.523438"/>
       <use xlink:href="#Helvetica-69" x="667.138672"/>
       <use xlink:href="#Helvetica-63" x="689.355469"/>
       <use xlink:href="#Helvetica-74" x="739.355469"/>
       <use xlink:href="#Helvetica-69" x="767.138672"/>
       <use xlink:href="#Helvetica-6f" x="789.355469"/>
       <use xlink:href="#Helvetica-6e" x="844.970703"/>
      </g>
     </g>
    </g>
    <g id="text_6">
     <!-- Features -->
     <g transform="translate(290.180938 642.259749) scale(0.34 -0.34)">
      <defs>
       <path id="Helvetica-46" d="M 547 4591 
L 3731 4591 
L 3731 4028 
L 1169 4028 
L 1169 2634 
L 3422 2634 
L 3422 2088 
L 1169 2088 
L 1169 0 
L 547 0 
L 547 4591 
z
" transform="scale(0.015625)"/>
      </defs>
      <use xlink:href="#Helvetica-46"/>
      <use xlink:href="#Helvetica-65" x="61.083984"/>
      <use xlink:href="#Helvetica-61" x="116.699219"/>
      <use xlink:href="#Helvetica-74" x="172.314453"/>
      <use xlink:href="#Helvetica-75" x="200.097656"/>
      <use xlink:href="#Helvetica-72" x="255.712891"/>
      <use xlink:href="#Helvetica-65" x="289.013672"/>
      <use xlink:href="#Helvetica-73" x="344.628906"/>
     </g>
    </g>
   </g>
   <g id="matplotlib.axis_2">
    <g id="ytick_1">
     <g id="line2d_6">
      <defs>
       <path id="mc23fafbabc" d="M 0 0 
L -6 0 
" style="stroke: #000000; stroke-width: 0.8"/>
      </defs>
      <g>
       <use xlink:href="#mc23fafbabc" x="106.161875" y="324.72" style="stroke: #000000; stroke-width: 0.8"/>
      </g>
     </g>
     <g id="text_7">
      <!-- 0 -->
      <g transform="translate(78.866875 336.1975) scale(0.32 -0.32)">
       <defs>
        <path id="Helvetica-30" d="M 1731 4475 
Q 2600 4475 2988 3759 
Q 3288 3206 3288 2244 
Q 3288 1331 3016 734 
Q 2622 -122 1728 -122 
Q 922 -122 528 578 
Q 200 1163 200 2147 
Q 200 2909 397 3456 
Q 766 4475 1731 4475 
z
M 1725 391 
Q 2163 391 2422 778 
Q 2681 1166 2681 2222 
Q 2681 2984 2493 3476 
Q 2306 3969 1766 3969 
Q 1269 3969 1039 3501 
Q 809 3034 809 2125 
Q 809 1441 956 1025 
Q 1181 391 1725 391 
z
" transform="scale(0.015625)"/>
       </defs>
       <use xlink:href="#Helvetica-30"/>
      </g>
     </g>
    </g>
    <g id="ytick_2">
     <g id="line2d_7">
      <g>
       <use xlink:href="#mc23fafbabc" x="106.161875" y="249.12" style="stroke: #000000; stroke-width: 0.8"/>
      </g>
     </g>
     <g id="text_8">
      <!-- 25 -->
      <g transform="translate(61.071875 260.5975) scale(0.32 -0.32)">
       <defs>
        <path id="Helvetica-35" d="M 791 1141 
Q 847 659 1238 475 
Q 1438 381 1700 381 
Q 2200 381 2440 700 
Q 2681 1019 2681 1406 
Q 2681 1875 2395 2131 
Q 2109 2388 1709 2388 
Q 1419 2388 1211 2275 
Q 1003 2163 856 1963 
L 369 1991 
L 709 4400 
L 3034 4400 
L 3034 3856 
L 1131 3856 
L 941 2613 
Q 1097 2731 1238 2791 
Q 1488 2894 1816 2894 
Q 2431 2894 2859 2497 
Q 3288 2100 3288 1491 
Q 3288 856 2895 371 
Q 2503 -113 1644 -113 
Q 1097 -113 676 195 
Q 256 503 206 1141 
L 791 1141 
z
" transform="scale(0.015625)"/>
       </defs>
       <use xlink:href="#Helvetica-32"/>
       <use xlink:href="#Helvetica-35" x="55.615234"/>
      </g>
     </g>
    </g>
    <g id="ytick_3">
     <g id="line2d_8">
      <g>
       <use xlink:href="#mc23fafbabc" x="106.161875" y="173.52" style="stroke: #000000; stroke-width: 0.8"/>
      </g>
     </g>
     <g id="text_9">
      <!-- 50 -->
      <g transform="translate(61.071875 184.9975) scale(0.32 -0.32)">
       <use xlink:href="#Helvetica-35"/>
       <use xlink:href="#Helvetica-30" x="55.615234"/>
      </g>
     </g>
    </g>
    <g id="ytick_4">
     <g id="line2d_9">
      <g>
       <use xlink:href="#mc23fafbabc" x="106.161875" y="97.92" style="stroke: #000000; stroke-width: 0.8"/>
      </g>
     </g>
     <g id="text_10">
      <!-- 75 -->
      <g transform="translate(61.071875 109.3975) scale(0.32 -0.32)">
       <defs>
        <path id="Helvetica-37" d="M 3347 4400 
L 3347 3909 
Q 3131 3700 2773 3181 
Q 2416 2663 2141 2063 
Q 1869 1478 1728 997 
Q 1638 688 1494 0 
L 872 0 
Q 1084 1281 1809 2550 
Q 2238 3294 2709 3834 
L 234 3834 
L 234 4400 
L 3347 4400 
z
" transform="scale(0.015625)"/>
       </defs>
       <use xlink:href="#Helvetica-37"/>
       <use xlink:href="#Helvetica-35" x="55.615234"/>
      </g>
     </g>
    </g>
    <g id="ytick_5">
     <g id="line2d_10">
      <g>
       <use xlink:href="#mc23fafbabc" x="106.161875" y="22.32" style="stroke: #000000; stroke-width: 0.8"/>
      </g>
     </g>
     <g id="text_11">
      <!-- 100 -->
      <g transform="translate(43.276875 33.7975) scale(0.32 -0.32)">
       <defs>
        <path id="Helvetica-31" d="M 613 3169 
L 613 3600 
Q 1222 3659 1462 3798 
Q 1703 3938 1822 4456 
L 2266 4456 
L 2266 0 
L 1666 0 
L 1666 3169 
L 613 3169 
z
" transform="scale(0.015625)"/>
       </defs>
       <use xlink:href="#Helvetica-31"/>
       <use xlink:href="#Helvetica-30" x="55.615234"/>
       <use xlink:href="#Helvetica-30" x="111.230469"/>
      </g>
     </g>
    </g>
    <g id="text_12">
     <!-- Left-out accuracy (%) -->
     <g transform="translate(31.988125 335.067813) rotate(-90) scale(0.34 -0.34)">
      <defs>
       <path id="Helvetica-4c" d="M 488 4591 
L 1109 4591 
L 1109 547 
L 3434 547 
L 3434 0 
L 488 0 
L 488 4591 
z
" transform="scale(0.015625)"/>
       <path id="Helvetica-66" d="M 553 3856 
Q 566 4206 675 4369 
Q 872 4656 1434 4656 
Q 1488 4656 1544 4653 
Q 1600 4650 1672 4644 
L 1672 4131 
Q 1584 4138 1545 4139 
Q 1506 4141 1472 4141 
Q 1216 4141 1166 4008 
Q 1116 3875 1116 3331 
L 1672 3331 
L 1672 2888 
L 1109 2888 
L 1109 0 
L 553 0 
L 553 2888 
L 88 2888 
L 88 3331 
L 553 3331 
L 553 3856 
z
" transform="scale(0.015625)"/>
       <path id="Helvetica-2d" d="M 266 2072 
L 1834 2072 
L 1834 1494 
L 266 1494 
L 266 2072 
z
" transform="scale(0.015625)"/>
       <path id="Helvetica-79" d="M 2503 3347 
L 3125 3347 
Q 3006 3025 2597 1878 
Q 2291 1016 2084 472 
Q 1597 -809 1397 -1090 
Q 1197 -1372 709 -1372 
Q 591 -1372 527 -1362 
Q 463 -1353 369 -1328 
L 369 -816 
Q 516 -856 581 -865 
Q 647 -875 697 -875 
Q 853 -875 926 -823 
Q 1000 -772 1050 -697 
Q 1066 -672 1162 -440 
Q 1259 -209 1303 -97 
L 66 3347 
L 703 3347 
L 1600 622 
L 2503 3347 
z
M 1597 3428 
L 1597 3428 
z
" transform="scale(0.015625)"/>
       <path id="Helvetica-25" d="M 4363 2175 
Q 4813 2175 5131 1856 
Q 5450 1538 5450 1088 
Q 5450 638 5131 319 
Q 4813 0 4363 0 
Q 3909 0 3590 319 
Q 3272 638 3272 1088 
Q 3272 1538 3590 1856 
Q 3909 2175 4363 2175 
z
M 3909 4456 
L 4256 4456 
L 1753 -119 
L 1406 -119 
L 3909 4456 
z
M 1294 2606 
Q 1563 2606 1752 2795 
Q 1941 2984 1941 3250 
Q 1941 3516 1752 3705 
Q 1563 3894 1294 3894 
Q 1028 3894 839 3706 
Q 650 3519 650 3250 
Q 650 2984 839 2795 
Q 1028 2606 1294 2606 
z
M 1294 4341 
Q 1747 4341 2065 4020 
Q 2384 3700 2384 3250 
Q 2384 2800 2065 2481 
Q 1747 2163 1294 2163 
Q 844 2163 525 2481 
Q 206 2800 206 3250 
Q 206 3700 525 4020 
Q 844 4341 1294 4341 
z
M 4363 444 
Q 4628 444 4817 633 
Q 5006 822 5006 1088 
Q 5006 1353 4817 1542 
Q 4628 1731 4363 1731 
Q 4094 1731 3905 1542 
Q 3716 1353 3716 1088 
Q 3716 822 3905 633 
Q 4094 444 4363 444 
z
" transform="scale(0.015625)"/>
      </defs>
      <use xlink:href="#Helvetica-4c"/>
      <use xlink:href="#Helvetica-65" x="55.615234"/>
      <use xlink:href="#Helvetica-66" x="111.230469"/>
      <use xlink:href="#Helvetica-74" x="139.013672"/>
      <use xlink:href="#Helvetica-2d" x="166.796875"/>
      <use xlink:href="#Helvetica-6f" x="200.097656"/>
      <use xlink:href="#Helvetica-75" x="255.712891"/>
      <use xlink:href="#Helvetica-74" x="311.328125"/>
      <use xlink:href="#Helvetica-20" x="339.111328"/>
      <use xlink:href="#Helvetica-61" x="366.894531"/>
      <use xlink:href="#Helvetica-63" x="422.509766"/>
      <use xlink:href="#Helvetica-63" x="472.509766"/>
      <use xlink:href="#Helvetica-75" x="522.509766"/>
      <use xlink:href="#Helvetica-72" x="578.125"/>
      <use xlink:href="#Helvetica-61" x="611.425781"/>
      <use xlink:href="#Helvetica-63" x="667.041016"/>
      <use xlink:href="#Helvetica-79" x="717.041016"/>
      <use xlink:href="#Helvetica-20" x="767.041016"/>
      <use xlink:href="#Helvetica-28" x="794.824219"/>
      <use xlink:href="#Helvetica-25" x="828.125"/>
      <use xlink:href="#Helvetica-29" x="917.041016"/>
     </g>
    </g>
   </g>
   <g id="patch_3">
    <path d="M 131.271875 41.22 
L 181.491875 41.22 
L 181.491875 22.32 
L 131.271875 22.32 
L 131.271875 41.22 
z
" clip-path="url(#p4b7082706c)" style="fill: #d3d3d3; stroke: #7f7f7f; stroke-width: 1.25; stroke-linejoin: miter"/>
   </g>
   <g id="line2d_11">
    <path d="M 156.381875 41.22 
L 156.381875 300.528 
" clip-path="url(#p4b7082706c)" style="fill: none; stroke: #7f7f7f; stroke-width: 1.25"/>
   </g>
   <g id="line2d_12">
    <path d="M 156.381875 22.32 
L 156.381875 22.32 
" clip-path="url(#p4b7082706c)" style="fill: none; stroke: #7f7f7f; stroke-width: 1.25"/>
   </g>
   <g id="line2d_13">
    <path d="M 143.826875 300.528 
L 168.936875 300.528 
" clip-path="url(#p4b7082706c)" style="fill: none; stroke: #7f7f7f; stroke-width: 1.25; stroke-linecap: square"/>
   </g>
   <g id="line2d_14">
    <path d="M 143.826875 22.32 
L 168.936875 22.32 
" clip-path="url(#p4b7082706c)" style="fill: none; stroke: #7f7f7f; stroke-width: 1.25; stroke-linecap: square"/>
   </g>
   <g id="line2d_15"/>
   <g id="patch_4">
    <path d="M 231.711875 44.244 
L 281.931875 44.244 
L 281.931875 22.32 
L 231.711875 22.32 
L 231.711875 44.244 
z
" clip-path="url(#p4b7082706c)" style="fill: #d3d3d3; stroke: #7f7f7f; stroke-width: 1.25; stroke-linejoin: miter"/>
   </g>
   <g id="line2d_16">
    <path d="M 256.821875 44.244 
L 256.821875 179.568 
" clip-path="url(#p4b7082706c)" style="fill: none; stroke: #7f7f7f; stroke-width: 1.25"/>
   </g>
   <g id="line2d_17">
    <path d="M 256.821875 22.32 
L 256.821875 22.32 
" clip-path="url(#p4b7082706c)" style="fill: none; stroke: #7f7f7f; stroke-width: 1.25"/>
   </g>
   <g id="line2d_18">
    <path d="M 244.266875 179.568 
L 269.376875 179.568 
" clip-path="url(#p4b7082706c)" style="fill: none; stroke: #7f7f7f; stroke-width: 1.25; stroke-linecap: square"/>
   </g>
   <g id="line2d_19">
    <path d="M 244.266875 22.32 
L 269.376875 22.32 
" clip-path="url(#p4b7082706c)" style="fill: none; stroke: #7f7f7f; stroke-width: 1.25; stroke-linecap: square"/>
   </g>
   <g id="line2d_20"/>
   <g id="patch_5">
    <path d="M 332.151875 219.636 
L 382.371875 219.636 
L 382.371875 22.32 
L 332.151875 22.32 
L 332.151875 219.636 
z
" clip-path="url(#p4b7082706c)" style="fill: #d3d3d3; stroke: #7f7f7f; stroke-width: 1.25; stroke-linejoin: miter"/>
   </g>
   <g id="line2d_21">
    <path d="M 357.261875 219.636 
L 357.261875 285.408 
" clip-path="url(#p4b7082706c)" style="fill: none; stroke: #7f7f7f; stroke-width: 1.25"/>
   </g>
   <g id="line2d_22">
    <path d="M 357.261875 22.32 
L 357.261875 22.32 
" clip-path="url(#p4b7082706c)" style="fill: none; stroke: #7f7f7f; stroke-width: 1.25"/>
   </g>
   <g id="line2d_23">
    <path d="M 344.706875 285.408 
L 369.816875 285.408 
" clip-path="url(#p4b7082706c)" style="fill: none; stroke: #7f7f7f; stroke-width: 1.25; stroke-linecap: square"/>
   </g>
   <g id="line2d_24">
    <path d="M 344.706875 22.32 
L 369.816875 22.32 
" clip-path="url(#p4b7082706c)" style="fill: none; stroke: #7f7f7f; stroke-width: 1.25; stroke-linecap: square"/>
   </g>
   <g id="line2d_25"/>
   <g id="patch_6">
    <path d="M 432.591875 23.076 
L 482.811875 23.076 
L 482.811875 22.32 
L 432.591875 22.32 
L 432.591875 23.076 
z
" clip-path="url(#p4b7082706c)" style="fill: #d3d3d3; stroke: #7f7f7f; stroke-width: 1.25; stroke-linejoin: miter"/>
   </g>
   <g id="line2d_26">
    <path d="M 457.701875 23.076 
L 457.701875 324.72 
" clip-path="url(#p4b7082706c)" style="fill: none; stroke: #7f7f7f; stroke-width: 1.25"/>
   </g>
   <g id="line2d_27">
    <path d="M 457.701875 22.32 
L 457.701875 22.32 
" clip-path="url(#p4b7082706c)" style="fill: none; stroke: #7f7f7f; stroke-width: 1.25"/>
   </g>
   <g id="line2d_28">
    <path d="M 445.146875 324.72 
L 470.256875 324.72 
" clip-path="url(#p4b7082706c)" style="fill: none; stroke: #7f7f7f; stroke-width: 1.25; stroke-linecap: square"/>
   </g>
   <g id="line2d_29">
    <path d="M 445.146875 22.32 
L 470.256875 22.32 
" clip-path="url(#p4b7082706c)" style="fill: none; stroke: #7f7f7f; stroke-width: 1.25; stroke-linecap: square"/>
   </g>
   <g id="line2d_30"/>
   <g id="patch_7">
    <path d="M 533.031875 204.516 
L 583.251875 204.516 
L 583.251875 22.32 
L 533.031875 22.32 
L 533.031875 204.516 
z
" clip-path="url(#p4b7082706c)" style="fill: #d3d3d3; stroke: #7f7f7f; stroke-width: 1.25; stroke-linejoin: miter"/>
   </g>
   <g id="line2d_31">
    <path d="M 558.141875 204.516 
L 558.141875 324.72 
" clip-path="url(#p4b7082706c)" style="fill: none; stroke: #7f7f7f; stroke-width: 1.25"/>
   </g>
   <g id="line2d_32">
    <path d="M 558.141875 22.32 
L 558.141875 22.32 
" clip-path="url(#p4b7082706c)" style="fill: none; stroke: #7f7f7f; stroke-width: 1.25"/>
   </g>
   <g id="line2d_33">
    <path d="M 545.586875 324.72 
L 570.696875 324.72 
" clip-path="url(#p4b7082706c)" style="fill: none; stroke: #7f7f7f; stroke-width: 1.25; stroke-linecap: square"/>
   </g>
   <g id="line2d_34">
    <path d="M 545.586875 22.32 
L 570.696875 22.32 
" clip-path="url(#p4b7082706c)" style="fill: none; stroke: #7f7f7f; stroke-width: 1.25; stroke-linecap: square"/>
   </g>
   <g id="line2d_35"/>
   <g id="line2d_36">
    <path d="M 106.161875 25.344 
L 608.361875 25.344 
" clip-path="url(#p4b7082706c)" style="fill: none; stroke-dasharray: 16,16; stroke-dashoffset: 0; stroke: #808080; stroke-width: 2"/>
   </g>
   <g id="line2d_37">
    <path d="M 106.161875 179.568 
L 608.361875 179.568 
" clip-path="url(#p4b7082706c)" style="fill: none; stroke-dasharray: 16,16; stroke-dashoffset: 0; stroke: #808080; stroke-width: 2"/>
   </g>
   <g id="line2d_38">
    <path d="M 131.271875 22.32 
L 181.491875 22.32 
" clip-path="url(#p4b7082706c)" style="fill: none; stroke: #7f7f7f; stroke-width: 1.25"/>
   </g>
   <g id="line2d_39">
    <path d="M 231.711875 22.32 
L 281.931875 22.32 
" clip-path="url(#p4b7082706c)" style="fill: none; stroke: #7f7f7f; stroke-width: 1.25"/>
   </g>
   <g id="line2d_40">
    <path d="M 332.151875 22.32 
L 382.371875 22.32 
" clip-path="url(#p4b7082706c)" style="fill: none; stroke: #7f7f7f; stroke-width: 1.25"/>
   </g>
   <g id="line2d_41">
    <path d="M 432.591875 22.32 
L 482.811875 22.32 
" clip-path="url(#p4b7082706c)" style="fill: none; stroke: #7f7f7f; stroke-width: 1.25"/>
   </g>
   <g id="line2d_42">
    <path d="M 533.031875 51.048 
L 583.251875 51.048 
" clip-path="url(#p4b7082706c)" style="fill: none; stroke: #7f7f7f; stroke-width: 1.25"/>
   </g>
   <g id="patch_8">
    <path d="M 106.161875 339.84 
L 106.161875 7.2 
" style="fill: none; stroke: #000000; stroke-width: 0.8; stroke-linejoin: miter; stroke-linecap: square"/>
   </g>
   <g id="patch_9">
    <path d="M 106.161875 339.84 
L 608.361875 339.84 
" style="fill: none; stroke: #000000; stroke-width: 0.8; stroke-linejoin: miter; stroke-linecap: square"/>
   </g>
   <g id="PathCollection_1">
    <defs>
     <path id="C0_0_1ef0f0a35b" d="M 0 6 
C 1.591219 6 3.117479 5.367802 4.242641 4.242641 
C 5.367802 3.117479 6 1.591219 6 -0 
C 6 -1.591219 5.367802 -3.117479 4.242641 -4.242641 
C 3.117479 -5.367802 1.591219 -6 0 -6 
C -1.591219 -6 -3.117479 -5.367802 -4.242641 -4.242641 
C -5.367802 -3.117479 -6 -1.591219 -6 0 
C -6 1.591219 -5.367802 3.117479 -4.242641 4.242641 
C -3.117479 5.367802 -1.591219 6 0 6 
z
"/>
    </defs>
    <g clip-path="url(#p4b7082706c)">
     <use xlink:href="#C0_0_1ef0f0a35b" x="159.587862" y="22.32" style="fill: #6dbe59; stroke: #ffffff; stroke-width: 0.3"/>
    </g>
    <g clip-path="url(#p4b7082706c)">
     <use xlink:href="#C0_0_1ef0f0a35b" x="160.162826" y="88.848" style="fill: #6dbe59; stroke: #ffffff; stroke-width: 0.3"/>
    </g>
    <g clip-path="url(#p4b7082706c)">
     <use xlink:href="#C0_0_1ef0f0a35b" x="146.678474" y="25.344" style="fill: #6dbe59; stroke: #ffffff; stroke-width: 0.3"/>
    </g>
    <g clip-path="url(#p4b7082706c)">
     <use xlink:href="#C0_0_1ef0f0a35b" x="162.006503" y="22.32" style="fill: #6dbe59; stroke: #ffffff; stroke-width: 0.3"/>
    </g>
    <g clip-path="url(#p4b7082706c)">
     <use xlink:href="#C0_0_1ef0f0a35b" x="157.110248" y="246.096" style="fill: #6dbe59; stroke: #ffffff; stroke-width: 0.3"/>
    </g>
    <g clip-path="url(#p4b7082706c)">
     <use xlink:href="#C0_0_1ef0f0a35b" x="150.573205" y="22.32" style="fill: #6dbe59; stroke: #ffffff; stroke-width: 0.3"/>
    </g>
    <g clip-path="url(#p4b7082706c)">
     <use xlink:href="#C0_0_1ef0f0a35b" x="148.065865" y="22.32" style="fill: #b07de2; stroke: #ffffff; stroke-width: 0.3"/>
    </g>
    <g clip-path="url(#p4b7082706c)">
     <use xlink:href="#C0_0_1ef0f0a35b" x="153.859878" y="22.32" style="fill: #c2ad39; stroke: #ffffff; stroke-width: 0.3"/>
    </g>
    <g clip-path="url(#p4b7082706c)">
     <use xlink:href="#C0_0_1ef0f0a35b" x="159.53832" y="297.504" style="fill: #b07de2; stroke: #ffffff; stroke-width: 0.3"/>
    </g>
    <g clip-path="url(#p4b7082706c)">
     <use xlink:href="#C0_0_1ef0f0a35b" x="162.358196" y="22.32" style="fill: #b07de2; stroke: #ffffff; stroke-width: 0.3"/>
    </g>
    <g clip-path="url(#p4b7082706c)">
     <use xlink:href="#C0_0_1ef0f0a35b" x="147.55314" y="22.32" style="fill: #b07de2; stroke: #ffffff; stroke-width: 0.3"/>
    </g>
    <g clip-path="url(#p4b7082706c)">
     <use xlink:href="#C0_0_1ef0f0a35b" x="154.996144" y="22.32" style="fill: #568eff; stroke: #ffffff; stroke-width: 0.3"/>
    </g>
    <g clip-path="url(#p4b7082706c)">
     <use xlink:href="#C0_0_1ef0f0a35b" x="155.226895" y="22.32" style="fill: #568eff; stroke: #ffffff; stroke-width: 0.3"/>
    </g>
    <g clip-path="url(#p4b7082706c)">
     <use xlink:href="#C0_0_1ef0f0a35b" x="165.734717" y="300.528" style="fill: #e57548; stroke: #ffffff; stroke-width: 0.3"/>
    </g>
    <g clip-path="url(#p4b7082706c)">
     <use xlink:href="#C0_0_1ef0f0a35b" x="150.542404" y="22.32" style="fill: #c2ad39; stroke: #ffffff; stroke-width: 0.3"/>
    </g>
    <g clip-path="url(#p4b7082706c)">
     <use xlink:href="#C0_0_1ef0f0a35b" x="152.905858" y="113.04" style="fill: #c2ad39; stroke: #ffffff; stroke-width: 0.3"/>
    </g>
    <g clip-path="url(#p4b7082706c)">
     <use xlink:href="#C0_0_1ef0f0a35b" x="152.88617" y="22.32" style="fill: #568eff; stroke: #ffffff; stroke-width: 0.3"/>
    </g>
    <g clip-path="url(#p4b7082706c)">
     <use xlink:href="#C0_0_1ef0f0a35b" x="157.899671" y="22.32" style="fill: #568eff; stroke: #ffffff; stroke-width: 0.3"/>
    </g>
    <g clip-path="url(#p4b7082706c)">
     <use xlink:href="#C0_0_1ef0f0a35b" x="164.897029" y="22.32" style="fill: #e57548; stroke: #ffffff; stroke-width: 0.3"/>
    </g>
    <g clip-path="url(#p4b7082706c)">
     <use xlink:href="#C0_0_1ef0f0a35b" x="159.789821" y="22.32" style="fill: #e57548; stroke: #ffffff; stroke-width: 0.3"/>
    </g>
   </g>
   <g id="PathCollection_2">
    <defs>
     <path id="C1_0_084e9641ef" d="M 0 6 
C 1.591219 6 3.117479 5.367802 4.242641 4.242641 
C 5.367802 3.117479 6 1.591219 6 -0 
C 6 -1.591219 5.367802 -3.117479 4.242641 -4.242641 
C 3.117479 -5.367802 1.591219 -6 0 -6 
C -1.591219 -6 -3.117479 -5.367802 -4.242641 -4.242641 
C -5.367802 -3.117479 -6 -1.591219 -6 0 
C -6 1.591219 -5.367802 3.117479 -4.242641 4.242641 
C -3.117479 5.367802 -1.591219 6 0 6 
z
"/>
    </defs>
    <g clip-path="url(#p4b7082706c)">
     <use xlink:href="#C1_0_084e9641ef" x="250.887204" y="22.32" style="fill: #6dbe59; stroke: #ffffff; stroke-width: 0.3"/>
    </g>
    <g clip-path="url(#p4b7082706c)">
     <use xlink:href="#C1_0_084e9641ef" x="257.702678" y="22.32" style="fill: #6dbe59; stroke: #ffffff; stroke-width: 0.3"/>
    </g>
    <g clip-path="url(#p4b7082706c)">
     <use xlink:href="#C1_0_084e9641ef" x="254.007692" y="122.112" style="fill: #6dbe59; stroke: #ffffff; stroke-width: 0.3"/>
    </g>
    <g clip-path="url(#p4b7082706c)">
     <use xlink:href="#C1_0_084e9641ef" x="262.7933" y="22.32" style="fill: #6dbe59; stroke: #ffffff; stroke-width: 0.3"/>
    </g>
    <g clip-path="url(#p4b7082706c)">
     <use xlink:href="#C1_0_084e9641ef" x="264.138359" y="173.52" style="fill: #6dbe59; stroke: #ffffff; stroke-width: 0.3"/>
    </g>
    <g clip-path="url(#p4b7082706c)">
     <use xlink:href="#C1_0_084e9641ef" x="248.3539" y="22.32" style="fill: #6dbe59; stroke: #ffffff; stroke-width: 0.3"/>
    </g>
    <g clip-path="url(#p4b7082706c)">
     <use xlink:href="#C1_0_084e9641ef" x="251.904756" y="22.32" style="fill: #b07de2; stroke: #ffffff; stroke-width: 0.3"/>
    </g>
    <g clip-path="url(#p4b7082706c)">
     <use xlink:href="#C1_0_084e9641ef" x="258.967103" y="179.568" style="fill: #c2ad39; stroke: #ffffff; stroke-width: 0.3"/>
    </g>
    <g clip-path="url(#p4b7082706c)">
     <use xlink:href="#C1_0_084e9641ef" x="266.246252" y="22.32" style="fill: #b07de2; stroke: #ffffff; stroke-width: 0.3"/>
    </g>
    <g clip-path="url(#p4b7082706c)">
     <use xlink:href="#C1_0_084e9641ef" x="257.48651" y="100.944" style="fill: #b07de2; stroke: #ffffff; stroke-width: 0.3"/>
    </g>
    <g clip-path="url(#p4b7082706c)">
     <use xlink:href="#C1_0_084e9641ef" x="248.730768" y="22.32" style="fill: #b07de2; stroke: #ffffff; stroke-width: 0.3"/>
    </g>
    <g clip-path="url(#p4b7082706c)">
     <use xlink:href="#C1_0_084e9641ef" x="255.433048" y="22.32" style="fill: #568eff; stroke: #ffffff; stroke-width: 0.3"/>
    </g>
    <g clip-path="url(#p4b7082706c)">
     <use xlink:href="#C1_0_084e9641ef" x="266.642514" y="22.32" style="fill: #568eff; stroke: #ffffff; stroke-width: 0.3"/>
    </g>
    <g clip-path="url(#p4b7082706c)">
     <use xlink:href="#C1_0_084e9641ef" x="249.961621" y="173.52" style="fill: #e57548; stroke: #ffffff; stroke-width: 0.3"/>
    </g>
    <g clip-path="url(#p4b7082706c)">
     <use xlink:href="#C1_0_084e9641ef" x="248.546002" y="22.32" style="fill: #c2ad39; stroke: #ffffff; stroke-width: 0.3"/>
    </g>
    <g clip-path="url(#p4b7082706c)">
     <use xlink:href="#C1_0_084e9641ef" x="249.113068" y="25.344" style="fill: #c2ad39; stroke: #ffffff; stroke-width: 0.3"/>
    </g>
    <g clip-path="url(#p4b7082706c)">
     <use xlink:href="#C1_0_084e9641ef" x="247.034247" y="22.32" style="fill: #568eff; stroke: #ffffff; stroke-width: 0.3"/>
    </g>
    <g clip-path="url(#p4b7082706c)">
     <use xlink:href="#C1_0_084e9641ef" x="248.493705" y="22.32" style="fill: #568eff; stroke: #ffffff; stroke-width: 0.3"/>
    </g>
    <g clip-path="url(#p4b7082706c)">
     <use xlink:href="#C1_0_084e9641ef" x="251.979" y="22.32" style="fill: #e57548; stroke: #ffffff; stroke-width: 0.3"/>
    </g>
    <g clip-path="url(#p4b7082706c)">
     <use xlink:href="#C1_0_084e9641ef" x="254.218617" y="22.32" style="fill: #e57548; stroke: #ffffff; stroke-width: 0.3"/>
    </g>
   </g>
   <g id="PathCollection_3">
    <defs>
     <path id="C2_0_6ee58a5c21" d="M 0 6 
C 1.591219 6 3.117479 5.367802 4.242641 4.242641 
C 5.367802 3.117479 6 1.591219 6 -0 
C 6 -1.591219 5.367802 -3.117479 4.242641 -4.242641 
C 3.117479 -5.367802 1.591219 -6 0 -6 
C -1.591219 -6 -3.117479 -5.367802 -4.242641 -4.242641 
C -5.367802 -3.117479 -6 -1.591219 -6 0 
C -6 1.591219 -5.367802 3.117479 -4.242641 4.242641 
C -3.117479 5.367802 -1.591219 6 0 6 
z
"/>
    </defs>
    <g clip-path="url(#p4b7082706c)">
     <use xlink:href="#C2_0_6ee58a5c21" x="361.448619" y="249.12" style="fill: #6dbe59; stroke: #ffffff; stroke-width: 0.3"/>
    </g>
    <g clip-path="url(#p4b7082706c)">
     <use xlink:href="#C2_0_6ee58a5c21" x="363.146002" y="258.192" style="fill: #6dbe59; stroke: #ffffff; stroke-width: 0.3"/>
    </g>
    <g clip-path="url(#p4b7082706c)">
     <use xlink:href="#C2_0_6ee58a5c21" x="362.660857" y="58.608" style="fill: #6dbe59; stroke: #ffffff; stroke-width: 0.3"/>
    </g>
    <g clip-path="url(#p4b7082706c)">
     <use xlink:href="#C2_0_6ee58a5c21" x="359.607081" y="252.144" style="fill: #6dbe59; stroke: #ffffff; stroke-width: 0.3"/>
    </g>
    <g clip-path="url(#p4b7082706c)">
     <use xlink:href="#C2_0_6ee58a5c21" x="365.530858" y="61.632" style="fill: #6dbe59; stroke: #ffffff; stroke-width: 0.3"/>
    </g>
    <g clip-path="url(#p4b7082706c)">
     <use xlink:href="#C2_0_6ee58a5c21" x="364.021148" y="22.32" style="fill: #6dbe59; stroke: #ffffff; stroke-width: 0.3"/>
    </g>
    <g clip-path="url(#p4b7082706c)">
     <use xlink:href="#C2_0_6ee58a5c21" x="353.366999" y="22.32" style="fill: #b07de2; stroke: #ffffff; stroke-width: 0.3"/>
    </g>
    <g clip-path="url(#p4b7082706c)">
     <use xlink:href="#C2_0_6ee58a5c21" x="356.881927" y="22.32" style="fill: #c2ad39; stroke: #ffffff; stroke-width: 0.3"/>
    </g>
    <g clip-path="url(#p4b7082706c)">
     <use xlink:href="#C2_0_6ee58a5c21" x="354.313386" y="22.32" style="fill: #b07de2; stroke: #ffffff; stroke-width: 0.3"/>
    </g>
    <g clip-path="url(#p4b7082706c)">
     <use xlink:href="#C2_0_6ee58a5c21" x="358.762221" y="22.32" style="fill: #b07de2; stroke: #ffffff; stroke-width: 0.3"/>
    </g>
    <g clip-path="url(#p4b7082706c)">
     <use xlink:href="#C2_0_6ee58a5c21" x="363.528008" y="22.32" style="fill: #b07de2; stroke: #ffffff; stroke-width: 0.3"/>
    </g>
    <g clip-path="url(#p4b7082706c)">
     <use xlink:href="#C2_0_6ee58a5c21" x="362.251117" y="22.32" style="fill: #568eff; stroke: #ffffff; stroke-width: 0.3"/>
    </g>
    <g clip-path="url(#p4b7082706c)">
     <use xlink:href="#C2_0_6ee58a5c21" x="358.345781" y="22.32" style="fill: #568eff; stroke: #ffffff; stroke-width: 0.3"/>
    </g>
    <g clip-path="url(#p4b7082706c)">
     <use xlink:href="#C2_0_6ee58a5c21" x="354.998675" y="270.288" style="fill: #e57548; stroke: #ffffff; stroke-width: 0.3"/>
    </g>
    <g clip-path="url(#p4b7082706c)">
     <use xlink:href="#C2_0_6ee58a5c21" x="364.112822" y="22.32" style="fill: #c2ad39; stroke: #ffffff; stroke-width: 0.3"/>
    </g>
    <g clip-path="url(#p4b7082706c)">
     <use xlink:href="#C2_0_6ee58a5c21" x="362.159303" y="25.344" style="fill: #c2ad39; stroke: #ffffff; stroke-width: 0.3"/>
    </g>
    <g clip-path="url(#p4b7082706c)">
     <use xlink:href="#C2_0_6ee58a5c21" x="363.369877" y="22.32" style="fill: #568eff; stroke: #ffffff; stroke-width: 0.3"/>
    </g>
    <g clip-path="url(#p4b7082706c)">
     <use xlink:href="#C2_0_6ee58a5c21" x="353.594487" y="285.408" style="fill: #568eff; stroke: #ffffff; stroke-width: 0.3"/>
    </g>
    <g clip-path="url(#p4b7082706c)">
     <use xlink:href="#C2_0_6ee58a5c21" x="347.636927" y="22.32" style="fill: #e57548; stroke: #ffffff; stroke-width: 0.3"/>
    </g>
    <g clip-path="url(#p4b7082706c)">
     <use xlink:href="#C2_0_6ee58a5c21" x="348.5262" y="209.808" style="fill: #e57548; stroke: #ffffff; stroke-width: 0.3"/>
    </g>
   </g>
   <g id="PathCollection_4">
    <defs>
     <path id="C3_0_a0a6cb7538" d="M 0 6 
C 1.591219 6 3.117479 5.367802 4.242641 4.242641 
C 5.367802 3.117479 6 1.591219 6 -0 
C 6 -1.591219 5.367802 -3.117479 4.242641 -4.242641 
C 3.117479 -5.367802 1.591219 -6 0 -6 
C -1.591219 -6 -3.117479 -5.367802 -4.242641 -4.242641 
C -5.367802 -3.117479 -6 -1.591219 -6 0 
C -6 1.591219 -5.367802 3.117479 -4.242641 4.242641 
C -3.117479 5.367802 -1.591219 6 0 6 
z
"/>
    </defs>
    <g clip-path="url(#p4b7082706c)">
     <use xlink:href="#C3_0_a0a6cb7538" x="460.51008" y="22.32" style="fill: #6dbe59; stroke: #ffffff; stroke-width: 0.3"/>
    </g>
    <g clip-path="url(#p4b7082706c)">
     <use xlink:href="#C3_0_a0a6cb7538" x="451.840689" y="25.344" style="fill: #6dbe59; stroke: #ffffff; stroke-width: 0.3"/>
    </g>
    <g clip-path="url(#p4b7082706c)">
     <use xlink:href="#C3_0_a0a6cb7538" x="457.894638" y="43.488" style="fill: #6dbe59; stroke: #ffffff; stroke-width: 0.3"/>
    </g>
    <g clip-path="url(#p4b7082706c)">
     <use xlink:href="#C3_0_a0a6cb7538" x="465.249852" y="22.32" style="fill: #6dbe59; stroke: #ffffff; stroke-width: 0.3"/>
    </g>
    <g clip-path="url(#p4b7082706c)">
     <use xlink:href="#C3_0_a0a6cb7538" x="459.105717" y="209.808" style="fill: #6dbe59; stroke: #ffffff; stroke-width: 0.3"/>
    </g>
    <g clip-path="url(#p4b7082706c)">
     <use xlink:href="#C3_0_a0a6cb7538" x="448.927875" y="22.32" style="fill: #6dbe59; stroke: #ffffff; stroke-width: 0.3"/>
    </g>
    <g clip-path="url(#p4b7082706c)">
     <use xlink:href="#C3_0_a0a6cb7538" x="455.723631" y="22.32" style="fill: #b07de2; stroke: #ffffff; stroke-width: 0.3"/>
    </g>
    <g clip-path="url(#p4b7082706c)">
     <use xlink:href="#C3_0_a0a6cb7538" x="465.694033" y="22.32" style="fill: #c2ad39; stroke: #ffffff; stroke-width: 0.3"/>
    </g>
    <g clip-path="url(#p4b7082706c)">
     <use xlink:href="#C3_0_a0a6cb7538" x="462.262313" y="22.32" style="fill: #b07de2; stroke: #ffffff; stroke-width: 0.3"/>
    </g>
    <g clip-path="url(#p4b7082706c)">
     <use xlink:href="#C3_0_a0a6cb7538" x="452.565212" y="22.32" style="fill: #b07de2; stroke: #ffffff; stroke-width: 0.3"/>
    </g>
    <g clip-path="url(#p4b7082706c)">
     <use xlink:href="#C3_0_a0a6cb7538" x="450.248205" y="22.32" style="fill: #b07de2; stroke: #ffffff; stroke-width: 0.3"/>
    </g>
    <g clip-path="url(#p4b7082706c)">
     <use xlink:href="#C3_0_a0a6cb7538" x="450.87007" y="22.32" style="fill: #568eff; stroke: #ffffff; stroke-width: 0.3"/>
    </g>
    <g clip-path="url(#p4b7082706c)">
     <use xlink:href="#C3_0_a0a6cb7538" x="456.193721" y="22.32" style="fill: #568eff; stroke: #ffffff; stroke-width: 0.3"/>
    </g>
    <g clip-path="url(#p4b7082706c)">
     <use xlink:href="#C3_0_a0a6cb7538" x="453.061832" y="324.72" style="fill: #e57548; stroke: #ffffff; stroke-width: 0.3"/>
    </g>
    <g clip-path="url(#p4b7082706c)">
     <use xlink:href="#C3_0_a0a6cb7538" x="452.10706" y="22.32" style="fill: #c2ad39; stroke: #ffffff; stroke-width: 0.3"/>
    </g>
    <g clip-path="url(#p4b7082706c)">
     <use xlink:href="#C3_0_a0a6cb7538" x="447.711886" y="91.872" style="fill: #c2ad39; stroke: #ffffff; stroke-width: 0.3"/>
    </g>
    <g clip-path="url(#p4b7082706c)">
     <use xlink:href="#C3_0_a0a6cb7538" x="458.331637" y="22.32" style="fill: #568eff; stroke: #ffffff; stroke-width: 0.3"/>
    </g>
    <g clip-path="url(#p4b7082706c)">
     <use xlink:href="#C3_0_a0a6cb7538" x="460.616018" y="22.32" style="fill: #568eff; stroke: #ffffff; stroke-width: 0.3"/>
    </g>
    <g clip-path="url(#p4b7082706c)">
     <use xlink:href="#C3_0_a0a6cb7538" x="452.690266" y="22.32" style="fill: #e57548; stroke: #ffffff; stroke-width: 0.3"/>
    </g>
    <g clip-path="url(#p4b7082706c)">
     <use xlink:href="#C3_0_a0a6cb7538" x="456.67746" y="22.32" style="fill: #e57548; stroke: #ffffff; stroke-width: 0.3"/>
    </g>
   </g>
   <g id="PathCollection_5">
    <defs>
     <path id="C4_0_82469426c7" d="M 0 6 
C 1.591219 6 3.117479 5.367802 4.242641 4.242641 
C 5.367802 3.117479 6 1.591219 6 -0 
C 6 -1.591219 5.367802 -3.117479 4.242641 -4.242641 
C 3.117479 -5.367802 1.591219 -6 0 -6 
C -1.591219 -6 -3.117479 -5.367802 -4.242641 -4.242641 
C -5.367802 -3.117479 -6 -1.591219 -6 0 
C -6 1.591219 -5.367802 3.117479 -4.242641 4.242641 
C -3.117479 5.367802 -1.591219 6 0 6 
z
"/>
    </defs>
    <g clip-path="url(#p4b7082706c)">
     <use xlink:href="#C4_0_82469426c7" x="550.048358" y="224.928" style="fill: #6dbe59; stroke: #ffffff; stroke-width: 0.3"/>
    </g>
    <g clip-path="url(#p4b7082706c)">
     <use xlink:href="#C4_0_82469426c7" x="554.498421" y="246.096" style="fill: #6dbe59; stroke: #ffffff; stroke-width: 0.3"/>
    </g>
    <g clip-path="url(#p4b7082706c)">
     <use xlink:href="#C4_0_82469426c7" x="565.300576" y="94.896" style="fill: #6dbe59; stroke: #ffffff; stroke-width: 0.3"/>
    </g>
    <g clip-path="url(#p4b7082706c)">
     <use xlink:href="#C4_0_82469426c7" x="559.920372" y="237.024" style="fill: #6dbe59; stroke: #ffffff; stroke-width: 0.3"/>
    </g>
    <g clip-path="url(#p4b7082706c)">
     <use xlink:href="#C4_0_82469426c7" x="556.867436" y="197.712" style="fill: #6dbe59; stroke: #ffffff; stroke-width: 0.3"/>
    </g>
    <g clip-path="url(#p4b7082706c)">
     <use xlink:href="#C4_0_82469426c7" x="555.980271" y="37.44" style="fill: #6dbe59; stroke: #ffffff; stroke-width: 0.3"/>
    </g>
    <g clip-path="url(#p4b7082706c)">
     <use xlink:href="#C4_0_82469426c7" x="564.009946" y="279.36" style="fill: #b07de2; stroke: #ffffff; stroke-width: 0.3"/>
    </g>
    <g clip-path="url(#p4b7082706c)">
     <use xlink:href="#C4_0_82469426c7" x="551.172677" y="22.32" style="fill: #c2ad39; stroke: #ffffff; stroke-width: 0.3"/>
    </g>
    <g clip-path="url(#p4b7082706c)">
     <use xlink:href="#C4_0_82469426c7" x="561.182854" y="22.32" style="fill: #b07de2; stroke: #ffffff; stroke-width: 0.3"/>
    </g>
    <g clip-path="url(#p4b7082706c)">
     <use xlink:href="#C4_0_82469426c7" x="549.538315" y="22.32" style="fill: #b07de2; stroke: #ffffff; stroke-width: 0.3"/>
    </g>
    <g clip-path="url(#p4b7082706c)">
     <use xlink:href="#C4_0_82469426c7" x="553.956745" y="22.32" style="fill: #b07de2; stroke: #ffffff; stroke-width: 0.3"/>
    </g>
    <g clip-path="url(#p4b7082706c)">
     <use xlink:href="#C4_0_82469426c7" x="555.44913" y="22.32" style="fill: #568eff; stroke: #ffffff; stroke-width: 0.3"/>
    </g>
    <g clip-path="url(#p4b7082706c)">
     <use xlink:href="#C4_0_82469426c7" x="549.59976" y="28.368" style="fill: #568eff; stroke: #ffffff; stroke-width: 0.3"/>
    </g>
    <g clip-path="url(#p4b7082706c)">
     <use xlink:href="#C4_0_82469426c7" x="562.295569" y="64.656" style="fill: #e57548; stroke: #ffffff; stroke-width: 0.3"/>
    </g>
    <g clip-path="url(#p4b7082706c)">
     <use xlink:href="#C4_0_82469426c7" x="563.39036" y="82.8" style="fill: #c2ad39; stroke: #ffffff; stroke-width: 0.3"/>
    </g>
    <g clip-path="url(#p4b7082706c)">
     <use xlink:href="#C4_0_82469426c7" x="553.82241" y="22.32" style="fill: #c2ad39; stroke: #ffffff; stroke-width: 0.3"/>
    </g>
    <g clip-path="url(#p4b7082706c)">
     <use xlink:href="#C4_0_82469426c7" x="551.345128" y="28.368" style="fill: #568eff; stroke: #ffffff; stroke-width: 0.3"/>
    </g>
    <g clip-path="url(#p4b7082706c)">
     <use xlink:href="#C4_0_82469426c7" x="560.94937" y="324.72" style="fill: #568eff; stroke: #ffffff; stroke-width: 0.3"/>
    </g>
    <g clip-path="url(#p4b7082706c)">
     <use xlink:href="#C4_0_82469426c7" x="562.576278" y="70.704" style="fill: #e57548; stroke: #ffffff; stroke-width: 0.3"/>
    </g>
    <g clip-path="url(#p4b7082706c)">
     <use xlink:href="#C4_0_82469426c7" x="560.037706" y="28.368" style="fill: #e57548; stroke: #ffffff; stroke-width: 0.3"/>
    </g>
   </g>
   <g id="line2d_43"/>
   <g id="line2d_44"/>
   <g id="line2d_45"/>
   <g id="line2d_46"/>
   <g id="line2d_47"/>
   <g id="legend_1"/>
  </g>
 </g>
 <defs>
  <clipPath id="p4b7082706c">
   <rect x="106.161875" y="7.2" width="502.2" height="332.64"/>
  </clipPath>
 </defs>
</svg>
